<?xml version="1.0" standalone="no"?>
<!DOCTYPE svg PUBLIC "-//W3C//DTD SVG 1.1//EN" "http://www.w3.org/Graphics/SVG/1.1/DTD/svg11.dtd">
<svg xmlns="http://www.w3.org/2000/svg" id="Camada_4" data-name="Camada 4" viewBox="0 0 385.16 595.09" width="385.1600036621094" height="595.0900268554688"><defs><style>.cls-1{fill:#fff5dc;}</style></defs><path class="cls-1" d="M186.77,625a27.1,27.1,0,0,1-27.1-27.1V165.37a27.1,27.1,0,0,1,27.1-27.1h61L379,354.79c8.53,14.07,30.17,8,30.17-8.42V138.27l40.78-73,40.79,73V525a27.1,27.1,0,0,1-27.1,27.1h-61L271.41,335.53c-8.53-14.07-30.16-8-30.16,8.43v253.9a27.1,27.1,0,0,1-27.1,27.1Z" transform="translate(-159.67 -29.87)"/><path class="cls-1" d="M449.73,104.67c-.48.72-.81,1.16-1.1,1.64L429.22,138.9l-14,23.52q-6.15,10.31-12.29,20.63a31.42,31.42,0,0,1-5.11,6.64,25.61,25.61,0,0,1-13.52,6.78A23.94,23.94,0,0,1,369,194a24.78,24.78,0,0,1-11.77-12.51,24.49,24.49,0,0,1-2-11.94,22.07,22.07,0,0,1,2.23-8.54c1.3-2.48,2.64-4.94,4.07-7.34,5.11-8.61,10.28-17.16,15.4-25.76q11-18.44,21.92-36.95c5.11-8.6,10.28-17.16,15.37-25.76,4.28-7.23,8.49-14.5,12.74-21.75a26.57,26.57,0,0,1,10.53-10.57,25.88,25.88,0,0,1,11.48-3,24.85,24.85,0,0,1,15.7,5,26.25,26.25,0,0,1,7,7.8q7.77,13,15.56,26c5.07,8.45,10.2,16.83,15.28,25.25q5.47,9,10.9,18.1l7.85,12.94q4.39,7.29,8.78,14.6c3.4,5.61,6.78,11.23,10.21,16.82a29.14,29.14,0,0,1,4.4,11.58,24.66,24.66,0,0,1-1.93,13.13A25,25,0,0,1,532,193a24.44,24.44,0,0,1-16.43,3c-8.17-1.35-14-5.91-18.26-12.78-7.1-11.61-14.09-23.28-21.12-34.94-2.72-4.51-5.42-9.05-8.15-13.57-3.65-6-7.33-12-11-18.05-1.87-3.07-3.7-6.15-5.56-9.27C451,106.58,450.43,105.78,449.73,104.67Z" transform="translate(-159.67 -29.87)"/></svg>