<svg id="Camada_4" data-name="Camada 4" xmlns="http://www.w3.org/2000/svg" viewBox="0 0 305 379.45"><path d="M354.53,321.63c-.22,15.56-1.41,29.68-4.45,43.6-6.92,31.68-22.87,58-47.12,79.41a128.85,128.85,0,0,1-53.1,28.61,136,136,0,0,1-37.48,4.14c-32.73-.68-61.3-12.61-86.83-32.45-15.34-11.93-28-26.38-38.9-42.44a210,210,0,0,1-30.8-69.09,111.41,111.41,0,0,1-3.11-35.09,71.1,71.1,0,0,1,9.14-30.45c7.48-12.92,18.5-21.26,32.75-25.48a113,113,0,0,1,22.62-4.09c7.3-.62,14.63-1.07,21.93-1.69a76.28,76.28,0,0,0,16.91-3.33c10.29-3.28,17-10.18,20.49-20.31a89.07,89.07,0,0,0,3.28-14.62c1-6.07,1.79-12.22,3.26-18.19,4.22-17.21,19.52-28.9,35.58-30.77a79.73,79.73,0,0,1,34.12,3.25c1.44.46,2.9.83,4.33,1.31a12.52,12.52,0,0,1,6.29,4.43,6.44,6.44,0,0,1-.38,8,6,6,0,0,1-7.65,1.42c-2.82-1.79-6-2.39-9.07-3.07a81,81,0,0,0-23.72-1.52c-10.76.84-23.31,8.2-26,23.06-.95,5.26-1.56,10.58-2.51,15.84a126.91,126.91,0,0,1-2.88,13.44C186.36,232.13,175.66,243.05,159,248a103.16,103.16,0,0,1-21.21,3.73c-7.31.59-14.64,1-21.94,1.71a91.11,91.11,0,0,0-16.73,3.18c-13.58,3.93-22.57,12.72-27.68,25.73A64.85,64.85,0,0,0,67.3,306.1a109.14,109.14,0,0,0,4.78,31,196.75,196.75,0,0,0,45.16,80.24,145.82,145.82,0,0,0,54.89,37.46,122.19,122.19,0,0,0,55.33,7.48c25.52-2.2,47.54-12.36,66.59-29.21,20.54-18.17,34.39-40.52,41.08-67.18a168.57,168.57,0,0,0,4.33-28,218,218,0,0,0,.45-24.25A252.17,252.17,0,0,0,336,277.26C332.34,256.6,325.37,237,316.72,218c-.79-1.74-1.83-3.37-2.6-5.13a6.4,6.4,0,0,1,4.23-9,5.87,5.87,0,0,1,6,1.63,23.93,23.93,0,0,1,3.74,5.12c2.14,4.06,4.1,8.21,6,12.39a205.11,205.11,0,0,1,13.64,39.36,292.09,292.09,0,0,1,5.24,31.4C354.14,303.51,354.36,313.24,354.53,321.63Z" transform="translate(-52.43 -97.98)"/><path d="M165.05,328.51a46.12,46.12,0,0,1,3.56-15.95,66.27,66.27,0,0,1,18-25.93,38.65,38.65,0,0,1,18.44-9.44,21.38,21.38,0,0,1,7.56-.37,2.08,2.08,0,0,0,2.44-1.24q16.45-27.9,33-55.73a770.56,770.56,0,0,1,43.36-65.45c10.57-14.2,21.62-28,34-40.72a83.42,83.42,0,0,1,12-10.56,49.7,49.7,0,0,1,7.66-4.32,8.75,8.75,0,0,1,8.48.62,5.69,5.69,0,0,1,2.55,2.86,19.23,19.23,0,0,1,1.23,9.06c-.65,6.31-2.88,12.1-5.47,17.79a289,289,0,0,1-28.38,48.32C311.7,193.91,299,209.62,286,225.13q-23.69,28.31-47.42,56.58c-1,1.16-2.07,2.21-3,3.41a35.43,35.43,0,0,0-2.56,3.94,1.76,1.76,0,0,0,.14,1.31c4.12,9.71,1.26,19.87-7.06,26.79a35.94,35.94,0,0,1-15,7.36c-4.93,1.16-10,1.92-14.91,2.93-4,.82-8.05,1.66-12,2.66a12.45,12.45,0,0,0-7.27,4.7c-2,2.66-4.69,2.78-7.6,1.87-2.69-.85-3.92-2.85-4.24-5.5A23.77,23.77,0,0,1,165.05,328.51Zm180-215.07-.22-.72a2.7,2.7,0,0,0-.71.32c-.94.79-1.88,1.59-2.79,2.42a230.32,230.32,0,0,0-19.49,20.88c-18.63,21.93-35,45.48-50.46,69.72-2,3.18-4,6.39-6,9.59-.36.58-.81,1.11-.11,1.81,1.75,1.74,3.46,3.51,5.17,5.29.51.53.92.48,1.34-.08.21-.27.44-.52.66-.79,8-9.69,16-19.33,23.83-29.11,11.12-13.84,21.77-28,31-43.24A207.6,207.6,0,0,0,343.85,117C344.3,115.83,344.64,114.64,345.05,113.44ZM222.46,299.72a8.4,8.4,0,0,0-2.54-6.47,13.62,13.62,0,0,0-10.51-3.79c-4.92.29-9.1,2.45-12.87,5.44a52.63,52.63,0,0,0-16.19,22.4,5.41,5.41,0,0,0-.18,1.16,4.49,4.49,0,0,0,1.17-.08c6.08-2,12.39-2.94,18.66-4a56.16,56.16,0,0,0,12.29-3.27,20,20,0,0,0,7.55-5.21A9.61,9.61,0,0,0,222.46,299.72Zm14-34.86c.5-.54.88-.93,1.23-1.34l22.93-27.4,1.45-1.73c1.22-1.47,1.22-1.48,0-2.85-.77-.87-1.55-1.73-2.34-2.59-1.59-1.74-1.49-1.61-2.62.29L237,263.12a10.28,10.28,0,0,0-.58,1.08C236.35,264.33,236.41,264.51,236.44,264.86Z" transform="translate(-52.43 -97.98)"/><path d="M277.86,356.72a29.33,29.33,0,1,1-29.34,29.21A29.31,29.31,0,0,1,277.86,356.72Zm15.27,29.43a15.33,15.33,0,1,0-15.34,15.18A15.28,15.28,0,0,0,293.13,386.15Z" transform="translate(-52.43 -97.98)"/><path d="M213.94,412.76a29.34,29.34,0,1,1-29.26-29.3A29.31,29.31,0,0,1,213.94,412.76Zm-29.32,15.31a15.33,15.33,0,1,0-15.29-15.43A15.26,15.26,0,0,0,184.62,428.07Z" transform="translate(-52.43 -97.98)"/><path d="M325.44,292.06a29.34,29.34,0,1,1-29.21-29.41A29.21,29.21,0,0,1,325.44,292.06ZM296.26,276.7a15.33,15.33,0,1,0,15.22,15.54A15.22,15.22,0,0,0,296.26,276.7Z" transform="translate(-52.43 -97.98)"/><path d="M125.81,380.56a29.33,29.33,0,1,1,29.3-29.26A29.3,29.3,0,0,1,125.81,380.56Zm-15.32-29.27A15.33,15.33,0,1,0,125.67,336,15.29,15.29,0,0,0,110.49,351.29Z" transform="translate(-52.43 -97.98)"/></svg>