<svg id="Camada_5" data-name="Camada 5" xmlns="http://www.w3.org/2000/svg" viewBox="0 0 304.51 315.71"><path d="M57.68,232.43A101.63,101.63,0,0,1,115.58,141a95.64,95.64,0,0,1,36-9.53c33.78-1.9,62.15,9.69,84.52,35.15,12.6,14.34,20.16,31.2,23.17,50.09a91.19,91.19,0,0,1,1.23,13.7c0,2.4.2,4.8.26,7.19a11.81,11.81,0,0,1-.2,2.45A7.85,7.85,0,0,1,245,240a36.05,36.05,0,0,1-.54-6.3,85.31,85.31,0,0,0-144.11-63,83.52,83.52,0,0,0-25.57,49.25,85.2,85.2,0,0,0,59.81,94.26,77.45,77.45,0,0,0,22.88,3.53c1.5,0,3-.17,4.5-.29,2.55-.19,5-.09,7.15,1.63a8,8,0,0,1,.29,12.37,28.57,28.57,0,0,1-2.57,2,2.94,2.94,0,0,1-1.38.24,101.14,101.14,0,0,1-49.74-9.56,18.55,18.55,0,0,0-2.22-.72,21.31,21.31,0,0,0,1,2q20,33.24,39.92,66.47c1.48,2.45,1.28,2.59,3,0,5.47-8,11-15.91,16.41-23.9a8.4,8.4,0,0,1,7-4.11,7.81,7.81,0,0,1,7.66,10,14.63,14.63,0,0,1-1.58,3.32c-2.34,3.95-5,7.69-7.69,11.41-5.16,7.1-10.07,14.38-15.08,21.58-.47.68-1,1.34-1.42,2-3.32,4.9-11.88,4.73-14.93-.49-1.28-2.19-2.63-4.34-3.93-6.52Q106.9,343.68,70,282.25a15.62,15.62,0,0,1-2.63-6.4,7.42,7.42,0,0,0-.79-2.11,102,102,0,0,1-8.39-32.07C57.87,238.6,57.84,235.51,57.68,232.43Z" transform="translate(-57.68 -131.23)"/><path d="M252.21,397.23a71.51,71.51,0,1,1,55.34-26.3c-1.7,2.08-1.72,1.6.07,3.61L359,432.35a19.11,19.11,0,0,1,2,2.58,7.85,7.85,0,0,1-11.56,10.3,21.37,21.37,0,0,1-2.6-2.61l-50.71-57-.4-.46c-1.69-1.9-1.45-1.61-3.28-.37a70.23,70.23,0,0,1-31.64,11.83C258,396.92,255.08,397,252.21,397.23ZM307.66,326a55.35,55.35,0,1,0-56,55.12A55.28,55.28,0,0,0,307.66,326Z" transform="translate(-57.68 -131.23)"/></svg>