<svg id="Camada_6" data-name="Camada 6" xmlns="http://www.w3.org/2000/svg" viewBox="0 0 270.96 371.75"><path d="M205.36,419.31q0-33.22,0-66.44a7.24,7.24,0,0,0-1.43-4.54q-61.4-85.18-122.72-170.4c-.68-.94-1.39-1.87-2-2.86-3.29-5.42-.24-11.65,6.06-12.39a22.39,22.39,0,0,1,2.46-.06h70.76a20,20,0,0,0,2.17-.25,11,11,0,0,0-1-1.94c-2-2.75-4.07-5.52-6.25-8.16a34.88,34.88,0,0,0-8.81-7.65,24.85,24.85,0,0,1-2.87-2,5.57,5.57,0,0,1-1.63-6.51,5.36,5.36,0,0,1,5.84-3.24,10.45,10.45,0,0,1,2.92.92,42.11,42.11,0,0,1,13.87,10.42,92.54,92.54,0,0,1,11.71,16.36,3.49,3.49,0,0,0,3.51,2.09q79.91-.07,159.82,0l2.47,0c3.36,0,6,1.31,7.6,4.34S349,173,347,175.81q-6.29,8.66-12.52,17.34Q278.5,270.83,222.54,348.52a6.44,6.44,0,0,0-1.29,4q0,66.75,0,133.49c0,.28,0,.55,0,.83,0,1.78,0,1.82,1.87,1.82l31,0c2.88,0,5.77,0,8.64.13a7.47,7.47,0,0,1,6.67,4.45,7.79,7.79,0,0,1-6.24,11.18,78.1,78.1,0,0,1-7.81.18q-19.23,0-38.46,0H175.05c-3.16,0-6.31,0-9.46,0a15.65,15.65,0,0,1-3.07-.25,7.82,7.82,0,0,1-6.15-8.13,7.66,7.66,0,0,1,6.85-7.3c2.72-.27,5.48-.23,8.22-.23q15.84,0,31.68,0c2.23,0,2.24,0,2.24-2.27Zm49.15-240.78H186c-2.49,0-2.42,0-1.54,2.32,3.05,8.07,6.08,16.15,9,24.26a2,2,0,0,0,2,1.52,35.12,35.12,0,1,1-12.11,69c-17.34-4.53-28.73-21.21-26-38.84,2.06-13.56,9.74-22.95,22.51-28.1,1.68-.67,1.73-.66,1.16-2.29-3.15-8.84-6.5-17.6-10.39-26.16a2.45,2.45,0,0,0-2.6-1.71q-32.3.08-64.58,0a10.52,10.52,0,0,0-1.58.21,8.12,8.12,0,0,0,.71,1.59q19,26.46,38.08,52.9a9.71,9.71,0,0,0,1.08,1.23,10.58,10.58,0,0,1,1.71,1.62c2.84,4.65,6.53,8.7,9.12,13.56,1.59,3,3.92,5.6,5.93,8.38q19.81,27.54,39.65,55.07L212,332.3c1.43,2,1.27,1.92,2.7-.07q29.44-40.87,58.87-81.78a13.22,13.22,0,0,0,.92-1.75,14.39,14.39,0,0,0-1.94-.28c-9.74,0-19.47,0-29.2,0a13.69,13.69,0,0,1-3.26-.35,6.8,6.8,0,0,1-.22-13.09,11.81,11.81,0,0,1,3.25-.39q20,0,39.89,0a3.48,3.48,0,0,0,3.21-1.62Q305,206.8,323.78,180.69a12.37,12.37,0,0,0,1-1.92,19.89,19.89,0,0,0-2.18-.23Zm-41.28,63.08A21.1,21.1,0,1,0,192,262.66,21,21,0,0,0,213.23,241.61Z" transform="translate(-77.91 -132.81)"/></svg>