<svg id="Camada_11" data-name="Camada 11" xmlns="http://www.w3.org/2000/svg" viewBox="0 0 243.38 356.13"><path d="M341.77,284.15V420.72c0,1.57.06,3.15,0,4.73a9,9,0,0,1-2.93,6.34c-10,9.88-13.56,24.56-5.16,37.2,1.32,2,2.93,3.79,4.33,5.73a30.45,30.45,0,0,1,2.91,4.46,7.79,7.79,0,0,1-4.85,10.74,13.72,13.72,0,0,1-2.63.41c-.75.07-1.51,0-2.26,0q-92.87,0-185.73,0a77.62,77.62,0,0,1-15.72-1.57,27.47,27.47,0,0,1-9-3.49c-8.11-5-14.68-11.44-18.91-20.08a23.37,23.37,0,0,1-2.72-10.86c0-1.44-.06-2.88-.06-4.32q0-116.92,0-233.85c0-3.7-.23-7.4-.46-11.09-1.16-18.12,2.94-34.81,13.31-49.86,3.7-5.38,7.58-10.57,12.76-14.67a26.81,26.81,0,0,1,10-5.19,40.44,40.44,0,0,1,9.76-1.05c18.72-.09,37.44,0,56.15-.05l132.26,0c5.39,0,8.75,3.23,8.95,8.6,0,.89,0,1.79,0,2.68Zm-16-133.83H149.51V417.59H325.72ZM316.64,461H160.49a25.23,25.23,0,0,1-3.89-.21,6.82,6.82,0,0,1,.22-13.51,22.54,22.54,0,0,1,3.08-.13H313.35c.55,0,1.1,0,1.65,0,1.18.12,1.67-.39,1.91-1.56a41.81,41.81,0,0,1,3.6-10c.26-.52.44-1.09.78-1.91H157.51c-3.91,0-7.82,0-11.73.06a22.14,22.14,0,0,0-10.5,2.39,35.42,35.42,0,0,0-13.39,12.75,17.77,17.77,0,0,0-2.47,6.72c-.81,5.26.48,9.67,5.25,12.6a33.41,33.41,0,0,0,4.5,2.47c5.71,2.43,11.56,4.31,17.91,3.81.89-.07,1.78,0,2.67,0H319.26c.71,0,1.42-.05,2.49-.09A42.2,42.2,0,0,1,316.64,461ZM135.41,152.69a12.44,12.44,0,0,0-1.62,1.15,77.49,77.49,0,0,0-6.5,6.83c-8.16,10.74-11.48,23.17-12.3,36.42V428.46c0,1,0,1.92,0,2.88a13.39,13.39,0,0,0,.31,1.61,44.4,44.4,0,0,1,20.09-12.68Z" transform="translate(-98.42 -134.24)"/></svg>