<svg id="Camada_2" data-name="Camada 2" xmlns="http://www.w3.org/2000/svg" viewBox="0 0 240.28 288.77"><path d="M213.31,227.46q44.32,0,88.64,0c4.33,0,3.72-.64,4,3.86.22,4.17.07,8.36-.06,12.53a3.27,3.27,0,0,0,1.27,3q18.54,15.34,37,30.75c.47.4,1,.78,1.4,1.21a7,7,0,0,1-.28,10.53c-.72.64-1.52,1.18-2.28,1.77q-28.89,22.47-57.76,45a12.22,12.22,0,0,0-2.69,3c-6.71,10.64-15,19.7-25.81,26.36a76.35,76.35,0,0,1-32.88,10.92A95.13,95.13,0,0,1,192,374.58c-17.72-4.21-31.91-13.81-42.89-28.25-7.63-10-12.93-21.28-17-33.17a207.92,207.92,0,0,1-8.65-38.24c-1.44-10.32-2.27-20.71-2.73-31.12-.11-2.38.09-4.78.12-7.18s0-4.78.05-7.17c0-2,0-2,2.1-2h90.28Zm0,13.87H140.09c-.61,0-1.23,0-1.85,0-1.59,0-1.63.09-1.62,1.62,0,.34,0,.68,0,1a310.48,310.48,0,0,0,3.58,35.36,173,173,0,0,0,8.63,33.37c3.72,9.8,8.51,19,15.34,27.05A57.32,57.32,0,0,0,195.11,359a78.16,78.16,0,0,0,35.06.32,57,57,0,0,0,30.37-17.4,80.36,80.36,0,0,0,13.54-20.5c5.32-11.22,8.68-23.06,11.08-35.2a292.37,292.37,0,0,0,4.8-42c.15-3,.32-2.81-2.64-2.81Zm116.08,42.55a10.84,10.84,0,0,0-.81-.85q-11.37-9.12-22.77-18.22c-1.15-.92-1.26-.85-1.46.51-.12.75-.21,1.49-.29,2.24a232.92,232.92,0,0,1-5.74,32.53c-.76,3-1.65,5.93-2.45,8.9a2.41,2.41,0,0,0,.1.91,7.7,7.7,0,0,0,.71-.33c.18-.11.33-.26.49-.38l31-24.08c.27-.21.54-.42.8-.66A4.34,4.34,0,0,0,329.38,283.88Z" transform="translate(-107.53 -115.56)"/><path d="M213.35,404.32q-48.33,0-96.66,0A18,18,0,0,1,113,404a6.77,6.77,0,0,1-5.49-6.77,6.88,6.88,0,0,1,5.88-6.67,16.87,16.87,0,0,1,2.66-.13q97.38,0,194.76,0a13.76,13.76,0,0,1,3.85.45,6.8,6.8,0,0,1-.39,13,17.83,17.83,0,0,1-4.07.37Q261.78,404.34,213.35,404.32Z" transform="translate(-107.53 -115.56)"/><path d="M212.73,183.06a26,26,0,0,0-1.79-7.89c-1.31-3.38-2.75-6.72-4.16-10.06a57.45,57.45,0,0,1-4.31-13.26,35.26,35.26,0,0,1,5-24.25c1.15-1.93,2.6-3.69,3.93-5.52.88-1.22,1.82-2.39,2.68-3.62A5.6,5.6,0,0,1,220,116.1a5.54,5.54,0,0,1,4.22,4.77,7.17,7.17,0,0,1-1.21,5.28c-1.15,1.62-2.33,3.22-3.45,4.86a27,27,0,0,0-5,13.31,21.11,21.11,0,0,0,1.22,9.1c1.29,3.46,2.77,6.86,4.2,10.27,1.88,4.48,3.85,8.94,4.67,13.78a32.88,32.88,0,0,1-1.17,15.84,49.77,49.77,0,0,1-9.88,17.4,6.35,6.35,0,0,1-4.33,2.48,5.67,5.67,0,0,1-5.76-8,13.34,13.34,0,0,1,1.37-2.29,50.44,50.44,0,0,0,6.37-13.07A62,62,0,0,0,212.73,183.06Z" transform="translate(-107.53 -115.56)"/><path d="M184.71,115.56a5.81,5.81,0,0,1,6,6.93,9.88,9.88,0,0,1-1.37,3.39c-1,1.63-2.24,3.11-3.32,4.7-3.24,4.76-5.35,9.93-5,15.77a27.87,27.87,0,0,0,1.44,7.22c1.16,3.43,2.8,6.69,4.11,10.08a118.47,118.47,0,0,1,4.14,11.59,30.49,30.49,0,0,1-.82,17.83,49.34,49.34,0,0,1-9.28,16.58,14.62,14.62,0,0,1-1.86,1.91,5.76,5.76,0,0,1-7.06.08A5.69,5.69,0,0,1,170,204.8a12.9,12.9,0,0,1,1.24-2.12,54.33,54.33,0,0,0,6.47-13,19.11,19.11,0,0,0,.17-13.49c-1.38-3.72-2.91-7.39-4.44-11.06a64.12,64.12,0,0,1-4.25-12.42,35.18,35.18,0,0,1,4.63-25.29c1.18-2,2.67-3.82,4-5.7.88-1.22,1.82-2.4,2.68-3.62A5.35,5.35,0,0,1,184.71,115.56Z" transform="translate(-107.53 -115.56)"/><path d="M244.12,212.8A5.7,5.7,0,0,1,238.6,205a12,12,0,0,1,1.32-2.31,54.7,54.7,0,0,0,6.47-13,19.19,19.19,0,0,0,.17-13.5c-1.38-3.72-2.91-7.39-4.45-11a64.42,64.42,0,0,1-4.24-12.43,35.19,35.19,0,0,1,4.63-25.29c1.18-2,2.67-3.81,4-5.7.88-1.21,1.82-2.39,2.69-3.62a5.34,5.34,0,0,1,5.71-2.37,5.24,5.24,0,0,1,4.32,4.17,6.68,6.68,0,0,1-.88,5.52c-.89,1.38-1.88,2.69-2.84,4a32.36,32.36,0,0,0-4.68,8.87,21.88,21.88,0,0,0-.1,14.14c.94,2.78,2.1,5.5,3.19,8.23,1.52,3.82,3.22,7.57,4.59,11.44a31.61,31.61,0,0,1,.18,20.6,49.2,49.2,0,0,1-10.07,17.75A5.93,5.93,0,0,1,244.12,212.8Z" transform="translate(-107.53 -115.56)"/></svg>