<svg id="Camada_20" data-name="Camada 20" xmlns="http://www.w3.org/2000/svg" viewBox="0 0 300.85 276.17"><path d="M213.12,432.67H88.27a21.47,21.47,0,0,1-3.68-.24,6.76,6.76,0,0,1-5.66-6,15.65,15.65,0,0,1-.11-2.05q0-79,0-158c0-1.3,0-2.61.09-3.9a1.69,1.69,0,0,0-1-2,30.9,30.9,0,0,1-3.17-1.9c-5.09-3.45-8.13-8.43-10.34-14a6.66,6.66,0,0,1-.15-4,15.38,15.38,0,0,0,.42-3.23c0-4.66.15-9.33,0-14a14.8,14.8,0,0,1,3.27-9.88q19.35-25.59,38.54-51.31c.61-.82,1.22-1.65,1.82-2.48a7.41,7.41,0,0,1,6.35-3.19c1.37,0,2.74,0,4.11,0h182c3.42,0,6.86.08,10.28-.06a8.76,8.76,0,0,1,7.89,3.89q18.68,25.07,37.48,50l3.33,4.44a10.92,10.92,0,0,1,2.27,6.9c0,4.66,0,9.32,0,14a3.79,3.79,0,0,0,1.08,2.93c2,2.09,2.23,4.54,1.17,7.24-2.67,6.79-7.52,11.5-13.83,14.88a10.11,10.11,0,0,1-1.48.72,1.56,1.56,0,0,0-1.13,1.9,14.93,14.93,0,0,1,0,1.64q0,78.89,0,157.76a27.62,27.62,0,0,1-.1,2.88,7.48,7.48,0,0,1-6.24,6.72,22.9,22.9,0,0,1-3.89.23Q275.34,432.69,213.12,432.67Zm-120.45-91v73.84c0,.68,0,1.37,0,2.06,0,.87.44,1.2,1.28,1.19,1.65,0,3.3,0,4.94,0,.89,0,1.24-.41,1.18-1.26,0-.35,0-.69,0-1V301.94c0-3.5,0-7,0-10.49a7,7,0,0,1,6.85-7.26c.69-.05,1.37-.05,2.06-.05h9.46c19.2,0,38.4.11,57.59-.09,5.25-.05,9.16,2.7,8.78,8.52,0,.14,0,.27,0,.41q0,61.39,0,122.8c0,3.18-.71,3,3.09,3H330.64c3.62,0,3.32.5,3.32-3.27V268.67c0-.62,0-1.24,0-1.85-.07-1.43-.1-1.39-1.59-1.45a98.68,98.68,0,0,1-10-.51c-7.91-1.09-15.15-3.8-20.74-9.84-.8-.86-1.27-.63-2,0A32.25,32.25,0,0,1,288,262a48.86,48.86,0,0,1-24.74,1.95c-7.51-1.32-14.4-4-19.66-9.85-.84-.94-1.3-.52-1.95.14a32.27,32.27,0,0,1-12.27,7.68,48.86,48.86,0,0,1-25.14,2c-7.29-1.3-14-3.93-19.18-9.49-.82-.88-1.26-.31-1.83.22a32.5,32.5,0,0,1-14.65,8,52.77,52.77,0,0,1-8.87,1.61c-11.57.85-22.44-1-31.47-9-.74-.66-1.14-.37-1.7.16a30.24,30.24,0,0,1-7.7,5.43,46.24,46.24,0,0,1-23.78,4.39c-2.44-.18-2.43-.25-2.42,2.11,0,.75,0,1.51,0,2.26ZM213.12,213.24H337.34c.48,0,1,0,1.43,0s1.18-.17,1.76-.25a9.12,9.12,0,0,0-.76-1.57c-1.74-2.38-3.52-4.73-5.29-7.09-8.06-10.75-16.15-21.48-24.16-32.26a3.51,3.51,0,0,0-3.44-1.66c-1.42.13-2.87,0-4.31,0q-91.41,0-182.83,0a3.78,3.78,0,0,0-3.43,1.67C106.7,185,97,197.85,87.36,210.75A18.71,18.71,0,0,0,86.11,213a25.21,25.21,0,0,0,2.59.25ZM113.94,358.35v36q0,11.22,0,22.43c0,2,0,2,2.06,2h52.87c2.07,0,2.07,0,2.07-1.75q0-57.71,0-115.4c0-3.93.75-3.66-3.56-3.66q-25.2,0-50.4,0c-3.37,0-3-.19-3,3Q113.93,329.66,113.94,358.35Zm99.6-131.24H80.66c-2.12,0-2.12,0-2.14,2.16,0,4.32-.1,8.63,0,12.95a4.25,4.25,0,0,0,.77,2.24,13.43,13.43,0,0,0,5.81,4.44,30.85,30.85,0,0,0,9.54,2.36,32.6,32.6,0,0,0,17.1-2.48c4.31-2,7.81-4.89,9.61-9.61a6.3,6.3,0,0,1,10.91-1.49,22,22,0,0,1,2.32,3.64c2,4,5.38,6.29,9.52,7.61a36.07,36.07,0,0,0,17.47,1.13c5.26-.92,10-2.85,13.64-7a20.6,20.6,0,0,0,2.66-3.87c2.31-4.39,10-5.66,12.94-.31.53,1,1.21,1.84,1.7,2.81a14.27,14.27,0,0,0,8.65,7.15,35.15,35.15,0,0,0,23.79-.13,18.81,18.81,0,0,0,10.67-9.14,6.51,6.51,0,0,1,3.35-3.21,20.06,20.06,0,0,1,3.38-.81,6.39,6.39,0,0,1,7.07,3,27.68,27.68,0,0,1,1.83,3c1.93,3.87,5.16,6.11,9.14,7.45a35.21,35.21,0,0,0,16,1.52c7.84-1,14.44-4,18.39-11.45,1.64-3.07,5.12-4,8.39-2.79a7.74,7.74,0,0,1,4.23,3.42c.58,1,1.28,1.95,1.81,3a13.66,13.66,0,0,0,7.76,6.68,34.56,34.56,0,0,0,25.5-.2c2.05-.81,3.81-2.36,5.69-3.61a1.38,1.38,0,0,0,.57-1.59,33.19,33.19,0,0,1-.56-5.07c-.09-3.42,0-6.85,0-10.28,0-1.47-.05-1.47-1.5-1.52H213.54Z" transform="translate(-63.98 -156.5)"/><path d="M259.4,284.12h58.83a13.45,13.45,0,0,1,2.46.17,6.57,6.57,0,0,1,5.53,5.14,16.7,16.7,0,0,1,.34,3.87q0,50.71,0,101.41a18.89,18.89,0,0,1-.19,3.28,7.07,7.07,0,0,1-5.74,6,13,13,0,0,1-3.05.32h-117a13.13,13.13,0,0,1-2.65-.24,6.91,6.91,0,0,1-5.68-6.64c0-.82,0-1.65,0-2.47q0-51.42,0-102.85a8.42,8.42,0,0,1,1-4.55c1.55-2.55,3.91-3.48,6.79-3.48q20.67,0,41.34.06h18.1Zm0,13.86h-50.8c-2.95,0-2.55.06-2.55,2.59q0,43.5,0,87c0,3.16-.3,2.88,2.86,2.88h101c.48,0,1,0,1.43,0,1,.06,1.39-.39,1.33-1.34,0-.34,0-.69,0-1q0-43.92,0-87.83c0-2.25,0-2.25-2.26-2.27h-51Z" transform="translate(-63.98 -156.5)"/></svg>