<svg id="Camada_10" data-name="Camada 10" xmlns="http://www.w3.org/2000/svg" viewBox="0 0 405.72 490.66"><path d="M210.76,489.69H400.81c1.58,0,3.16-.05,4.73,0a8,8,0,0,1,8,7.57c.06.68.07,1.37.07,2.05q0,12.65,0,25.3c0,.55,0,1.1-.06,1.64a8.09,8.09,0,0,1-7.73,7.68c-.75.06-1.5,0-2.26,0H17.93c-.55,0-1.1,0-1.65,0-5-.2-8.3-3.54-8.35-8.56,0-3.22,0-6.44,0-9.67q0-8.62,0-17.27c0-5.38,3.34-8.78,8.69-8.78H210.76Zm.1,28.36h183.9c.48,0,1,0,1.44,0,1.45,0,1.52-.07,1.54-1.53,0-2.67,0-5.35,0-8,0-3.32.1-2.88-2.87-2.88h-361q-4.11,0-8.22,0c-1.72,0-1.75,0-1.77,1.71q0,3.81,0,7.61c0,3.47-.33,3.07,3.09,3.07Z" transform="translate(-7.91 -43.3)"/><path d="M214.36,172.53h-145q-15.63,0-31.26,0c-5.44,0-8.8-3.24-8.83-8.64,0-8.64,0-17.28,0-25.92,0-4.71,2.08-7.82,6.34-9.86Q70.82,111.34,106,94.37L208.9,45c.8-.39,1.61-.76,2.44-1.09a8.46,8.46,0,0,1,7.15.43q19.81,9.56,39.65,19.07,67.29,32.3,134.6,64.54c4.74,2.27,7,5.4,6.79,10.74-.26,8.42-.09,16.86,0,25.3a8.19,8.19,0,0,1-3.23,7,8.49,8.49,0,0,1-5.41,1.61q-35.49,0-71-.05Zm-.1-15.88h151c5.49,0,11,0,16.46,0,1.83,0,1.86,0,1.86-1.82,0-3.63,0-7.26,0-10.9,0-3.09.39-2.49-2.35-3.81Q298.8,100.55,216.44,61a4.33,4.33,0,0,0-4.2,0Q130,100.54,47.68,140a8.45,8.45,0,0,0-1.64.84,2,2,0,0,0-.83,1.24c-.06,4.45,0,8.91-.05,13.36,0,.75.29,1.17,1.08,1.17l1.64,0H214.26Z" transform="translate(-7.91 -43.3)"/><path d="M214.36,433H323.8l67.06,0c5.26,0,8.61,3.36,8.61,8.62q0,13,0,25.92a14.77,14.77,0,0,1-.3,3.26,8.06,8.06,0,0,1-7.76,6.47c-.89,0-1.78,0-2.67,0H39.83c-.83,0-1.65,0-2.47,0a8,8,0,0,1-8.11-8.32c-.05-7.13,0-14.26,0-21.39,0-2.13,0-4.26,0-6.38a8,8,0,0,1,8-8.18c1.5,0,3,0,4.52,0Zm0,28.35H380c.69,0,1.38,0,2.06,0,1.46-.05,1.5-.06,1.52-1.52,0-2.95,0-5.9,0-8.85,0-2,0-2-2.05-2.06h-318c-5.49,0-11,0-16.46,0-1.8,0-1.82,0-1.84,1.86q0,3.69,0,7.4c0,3.58-.45,3.16,3.18,3.16Z" transform="translate(-7.91 -43.3)"/><path d="M279,302.82v98.73c0,3.39-.36,3.05,3.09,3.1a32.43,32.43,0,0,1,4.3.22,7.86,7.86,0,0,1-.17,15.54,21.21,21.21,0,0,1-2.87.13H230.25a21.6,21.6,0,0,1-2.67-.11,7.88,7.88,0,0,1-6.94-7.7,7.77,7.77,0,0,1,6.73-7.86c1.82-.24,3.69-.17,5.54-.23s1.77,0,1.8-1.87c0-.55,0-1.1,0-1.65q0-98.62,0-197.24c0-3.23.35-3-3-3-1.3,0-2.61,0-3.91-.1a7.85,7.85,0,0,1-.13-15.64,26.44,26.44,0,0,1,3.08-.13q26.13,0,52.24,0a22.53,22.53,0,0,1,3.29.18,7.85,7.85,0,0,1-.08,15.53c-1.83.22-3.7.11-5.55.17-1.66,0-1.71.08-1.71,1.79,0,5,0,10,0,15Zm-15.91.2V204.28c0-.62,0-1.24,0-1.86-.06-1.43-.1-1.52-1.53-1.54-2.6,0-5.21,0-7.81,0-3.42,0-3.08-.28-3.08,3.11q0,98.64,0,197.28c0,.62,0,1.23,0,1.85.07,1.41.13,1.5,1.57,1.52,2.74,0,5.48,0,8.22,0,2.93,0,2.63.22,2.63-2.68Q263.07,352.49,263.06,303Z" transform="translate(-7.91 -43.3)"/><path d="M108.94,303q0,49.37,0,98.73c0,3.15-.37,2.84,2.84,2.89a34.37,34.37,0,0,1,4.31.2,7.85,7.85,0,0,1-.19,15.59,23.74,23.74,0,0,1-2.67.1H60.17a21.6,21.6,0,0,1-2.67-.11,7.81,7.81,0,0,1-6.9-7.71,7.67,7.67,0,0,1,6.7-7.85c1.89-.25,3.83-.16,5.75-.23,1.55-.06,1.56-.07,1.6-1.66,0-.41,0-.82,0-1.23q0-98.83,0-197.67c0-3.5.52-3.18-3.15-3.22a33.81,33.81,0,0,1-3.9-.13,7.85,7.85,0,0,1,0-15.59,24.25,24.25,0,0,1,3.08-.15q26.22,0,52.45,0a22.47,22.47,0,0,1,3.07.16,7.85,7.85,0,0,1-.17,15.58c-1.77.19-3.56.09-5.34.14s-1.67.06-1.71,1.78c0,.62,0,1.23,0,1.85Zm-28.37-.21v100c0,1.83,0,1.85,1.79,1.86H90c3.53,0,3,.37,3-3.08q0-98.93,0-197.86c0-.34,0-.68,0-1,0-1.76,0-1.78-1.9-1.8-2.6,0-5.21,0-7.81,0-3.13,0-2.73-.08-2.73,2.83Q80.57,253.25,80.57,302.82Z" transform="translate(-7.91 -43.3)"/><path d="M341.9,420.55H315.57a22.46,22.46,0,0,1-3.07-.13,7.86,7.86,0,0,1-.17-15.54,33,33,0,0,1,4.1-.22c3.82-.08,3.33.45,3.33-3.24q0-98.73,0-197.46c0-3.32.46-3.06-3.08-3.09a39,39,0,0,1-3.9-.11,7.86,7.86,0,0,1-.12-15.62,26.36,26.36,0,0,1,3.08-.14q26.13,0,52.24,0a24,24,0,0,1,3.29.17,7.84,7.84,0,0,1-.1,15.55c-1.76.21-3.56.11-5.34.16s-1.74,0-1.78,1.71c0,.61,0,1.23,0,1.85q0,98.52,0,197.05c0,3.57-.48,3.1,3.18,3.17a35,35,0,0,1,4.1.21,7.85,7.85,0,0,1,0,15.54,21,21,0,0,1-3.08.14Zm6.23-117.75V203.87c0-.48,0-1,0-1.44-.05-1.46-.07-1.53-1.51-1.55-3.09,0-6.17,0-9.26,0-1.59,0-1.61.07-1.67,1.61,0,.34,0,.68,0,1V402a10.08,10.08,0,0,1,0,1.23c-.11,1.08.38,1.45,1.43,1.44,2.67-.05,5.35,0,8,0,3.44,0,3,.34,3-2.91Q348.14,352.26,348.13,302.8Z" transform="translate(-7.91 -43.3)"/><path d="M171.79,420.55H145.46a21,21,0,0,1-3.08-.14,7.82,7.82,0,0,1-6.76-7.84,7.7,7.7,0,0,1,6.68-7.68c1.89-.26,3.83-.17,5.75-.24,1.57-.06,1.61-.09,1.67-1.62,0-.48,0-1,0-1.44q0-98.74,0-197.48c0-3.49.45-3.21-3.16-3.24-1.23,0-2.47,0-3.69-.1a7.86,7.86,0,0,1-.08-15.64,26.35,26.35,0,0,1,3.08-.13q26,0,52,0a23.94,23.94,0,0,1,3.28.16,7.84,7.84,0,0,1-.15,15.58c-1.62.18-3.28.11-4.93.13-2.13,0-2.15,0-2.15,2.17q0,15.84,0,31.68,0,83.42,0,166.82c0,3.62-.35,3,3,3.12a34.21,34.21,0,0,1,4.3.22,7.84,7.84,0,0,1-.09,15.53,21,21,0,0,1-3.07.14Zm-6.15-117.71v98.49c0,.55,0,1.1,0,1.65.05,1.6.05,1.63,1.61,1.65q3.8,0,7.61,0c3.65,0,3.2.45,3.2-3.13q0-98.7,0-197.4v-.82c0-2.41,0-2.42-2.33-2.42h-7.2c-3.23,0-2.9-.18-2.9,2.86Q165.63,253.29,165.64,302.84Z" transform="translate(-7.91 -43.3)"/></svg>