<svg id="Camada_8" data-name="Camada 8" xmlns="http://www.w3.org/2000/svg" viewBox="0 0 241.22 304.47"><path d="M292.12,249q0,51.42,0,102.84a42.91,42.91,0,0,1-5.07,20.94c-5.74,10.49-14.16,17.65-26.29,19.35-14,1.95-25.48-2.86-33.66-14.39-14.63-20.62-2.53-49.55,22.37-53.87a34,34,0,0,1,24.8,5c.23.14.45.31.69.45,1,.59,1.16.53,1.22-.56,0-.55,0-1.1,0-1.65V205.3c0-3.1.22-2.9-2.75-2L124.27,246.79c-.4.11-.78.26-1.18.35a1.15,1.15,0,0,0-1,1.32c0,.48,0,1,0,1.44,0,50-.07,100.1.07,150.15a44.11,44.11,0,0,1-4.33,19.24,17.26,17.26,0,0,1-2.39,3.57,48.75,48.75,0,0,1-11.73,10.83,34.62,34.62,0,1,1,.46-58.73,14.22,14.22,0,0,0,1.78.8,16.57,16.57,0,0,0,.21-2q0-44.62,0-89.26,0-46.08,0-92.15A8,8,0,0,1,112.4,184L235.34,148.2,280.73,135a15.24,15.24,0,0,1,2.2-.51,7.91,7.91,0,0,1,9.13,7.33c.09,1.09.05,2.19.05,3.28Q292.13,197,292.12,249ZM276.2,169.44c0-4.72,0-9.45,0-14.18,0-2.4,0-2.4-2.38-1.71l-36.3,10.59-113,33c-2.56.75-2.39.29-2.39,3.17q0,14.08,0,28.17c0,2.37,0,2.38,2.38,1.69l59.78-17.42,89.95-26.24c2.34-.69,2-.69,2-2.64C276.21,179,276.2,174.24,276.2,169.44ZM85.33,424.82a20.65,20.65,0,0,0,.44-41.3c-11-.25-20.53,8.93-20.86,20.05A20.65,20.65,0,0,0,85.33,424.82Zm170.1-87.53a20.64,20.64,0,1,0,20.68,20.59A20.54,20.54,0,0,0,255.43,337.29Z" transform="translate(-50.9 -134.38)"/></svg>