<svg id="Camada_1" data-name="Camada 1" xmlns="http://www.w3.org/2000/svg" viewBox="0 0 240.74 423.89"><path d="M128.43,377.63q0-61.81,0-123.63a5.72,5.72,0,0,0-1.88-4.47c-14.49-14.41-28.86-28.94-43.42-43.27a13.65,13.65,0,0,1-4.42-10.7c.15-32.15.08-64.31.09-96.47,0-2.4,0-4.81.16-7.19A6.59,6.59,0,0,1,84,86a6.79,6.79,0,0,1,8.5,5.61,25.2,25.2,0,0,1,.16,3.69q0,49,0,97.92a6.23,6.23,0,0,0,2,4.84c10.62,10.51,21.17,21.11,31.75,31.67a14.83,14.83,0,0,0,1.72,1.29,15.5,15.5,0,0,0,.29-2.14q0-66.64,0-133.29c0-1.1,0-2.2.06-3.29a6.88,6.88,0,0,1,13.75.08c.09,1,0,2.06,0,3.08q0,66.56,0,133.09a18,18,0,0,0,.35,2.51,22.91,22.91,0,0,0,1.86-1.53q15.94-15.91,31.88-31.82a5.08,5.08,0,0,0,1.69-3.95Q178,168.2,178,142.59q0-24.28,0-48.55a15.56,15.56,0,0,1,.15-2.46A6.86,6.86,0,0,1,185,85.79a6.79,6.79,0,0,1,6.74,5.77,25.36,25.36,0,0,1,.2,3.9q0,49.15,0,98.32c0,1.44,0,2.88.05,4.32a8.2,8.2,0,0,1-2.55,6.27Q166.69,227,144,249.7a5.3,5.3,0,0,0-1.71,4.13q.06,122.79,0,245.6c0,1.1,0,2.2,0,3.29a7,7,0,0,1-6.81,6.89c-3.77.05-6.74-2.86-7-6.92-.06-.95,0-1.92,0-2.88Z" transform="translate(-78.75 -85.72)"/><path d="M319.49,297.63q0,101,0,202a28,28,0,0,1-.2,4.1,6.82,6.82,0,0,1-13.56-.38,30.06,30.06,0,0,1-.1-3.29V357.71c0-3.8.13-3-3.07-3-12.55,0-25.09,0-37.64,0-.55,0-1.1,0-1.64,0-3.77-.14-6.47-2.19-7.18-5.85a48,48,0,0,1-1.18-9.36q.09-25.5.51-51c.15-8.91.53-17.82,1-26.72.54-10.61,1.21-21.21,1.92-31.81.51-7.66,1.11-15.32,1.75-23,1.56-18.45,3.66-36.84,8.25-54.82,3.28-12.86,7.74-25.29,14.8-36.64,5.19-8.35,10.91-16.31,18.13-23a68.5,68.5,0,0,1,6.82-5.24,8.37,8.37,0,0,1,2.63-1.14c4.25-1.22,7.71.92,8.52,5.29a22.43,22.43,0,0,1,.26,4.1q0,56.36,0,112.71ZM305.62,224v-114a15.14,15.14,0,0,0,0-1.65,5.33,5.33,0,0,0-.32-1.08l-.93.73a1.83,1.83,0,0,0-.13.16,114.09,114.09,0,0,0-15.39,24.48,150.68,150.68,0,0,0-10.34,33.93c-1.81,9.77-3.3,19.59-4.23,29.49-.8,8.6-1.65,17.19-2.3,25.8-.72,9.5-1.31,19-1.83,28.53-.58,10.81-1.18,21.63-1.48,32.45-.39,14.12-.52,28.25-.72,42.37-.06,4.59,0,9.18,0,13.78,0,1.69.05,1.69,1.75,1.73.48,0,1,0,1.44,0h31.68c2.81,0,2.81,0,2.81-2.83Z" transform="translate(-78.75 -85.72)"/></svg>