<svg id="Camada_26" data-name="Camada 26" xmlns="http://www.w3.org/2000/svg" viewBox="0 0 222.88 317.88"><path d="M335.21,260.45c-.17,17.46-5.39,36.73-16.11,54.47q-25.49,42.15-51,84.28-16.71,27.63-33.32,55.32c-.88,1.46-1.69,3-2.46,4.5a8,8,0,0,1-13.73,1.25c-.62-.81-1.11-1.72-1.66-2.6q-41.58-67.14-83.16-134.28c-1.41-2.27-2.89-4.5-4.32-6.76a108.18,108.18,0,0,1-16.15-44.69c-3.49-27.68,2.29-53.38,17.88-76.57,17-25.24,40.59-40.89,70.34-47.27a105.85,105.85,0,0,1,31.7-1.89,111.4,111.4,0,0,1,95.52,73.72C333,232,335.17,244.42,335.21,260.45Zm-16.06-3.35a95.38,95.38,0,1,0-94.41,95.52A95.43,95.43,0,0,0,319.15,257.1Zm-44.08,99.68-.24-.33q-50.35,24.33-101,.59l-.23.35,51.27,82.79C241.72,412.15,258.4,384.47,275.07,356.78Z" transform="translate(-112.32 -145.78)"/></svg>