<svg id="Camada_3" data-name="Camada 3" xmlns="http://www.w3.org/2000/svg" viewBox="0 0 317.83 115.88"><path d="M209.76,305.11H135.92c-3,0-2.67-.15-2.68,2.65,0,12.35,0,24.69,0,37a21.09,21.09,0,0,1-.36,4.28,12,12,0,0,1-23.4-.29,20.55,20.55,0,0,1-.32-3.68q0-44,0-88a19.71,19.71,0,0,1,.2-3.07,12,12,0,0,1,23.82.78c.09.95.08,1.91.08,2.87V288.3c0,.48,0,1,0,1.44.06,1.39.11,1.43,1.57,1.5.41,0,.83,0,1.24,0H283.53c3,0,2.8.14,2.8-2.76,0-10.15,0-20.3,0-30.44a18.31,18.31,0,0,1,.52-4.68,11.95,11.95,0,0,1,23.33,1.75,31.75,31.75,0,0,1,.21,3.9q0,43.08,0,86.17a32.74,32.74,0,0,1-.18,3.7,12,12,0,0,1-23.81-.22c-.1-1-.09-2.06-.09-3.09q0-18.6,0-37.22c0-.55,0-1.1,0-1.65-.06-1.45-.12-1.52-1.5-1.58-.62,0-1.23,0-1.85,0Z" transform="translate(-50.96 -243.64)"/><path d="M104.88,301.64q0,12,0,24.05a12,12,0,0,1-3.77,9.23,12,12,0,0,1-20-6.6,18.43,18.43,0,0,1-.28-3.48q0-23.22,0-46.45a21.12,21.12,0,0,1,.21-3.07,12,12,0,0,1,23.83.84c.07.88.06,1.78.06,2.67v22.81Z" transform="translate(-50.96 -243.64)"/><path d="M338.73,301.79q0,11.2,0,22.4a32.46,32.46,0,0,1-.13,3.28,12,12,0,0,1-23.82-.11c-.09-.95-.09-1.92-.09-2.88q0-22.91,0-45.82a20,20,0,0,1,.52-5.08,11.94,11.94,0,0,1,23.37,2.12c.12,1.29.13,2.6.13,3.9Q338.75,290.69,338.73,301.79Z" transform="translate(-50.96 -243.64)"/><path d="M355.06,305.11c-1.91,0-3.83,0-5.74,0a15.4,15.4,0,0,1-2.25-.18,6.83,6.83,0,0,1,.61-13.6c2.32-.15,4.65-.11,7-.11,2.53,0,5.06,0,7.58.11a6.78,6.78,0,0,1,6.39,8.26,6.64,6.64,0,0,1-5.58,5.29,31,31,0,0,1-4.09.24C357.66,305.14,356.36,305.11,355.06,305.11Z" transform="translate(-50.96 -243.64)"/><path d="M64.78,291.29c2.32,0,4.65-.09,7,0a6.6,6.6,0,0,1,6.18,4.34,6.78,6.78,0,0,1-4.76,9.14,14.25,14.25,0,0,1-3.06.31c-3.63,0-7.25,0-10.88,0a15.37,15.37,0,0,1-2.45-.19,6.83,6.83,0,0,1,.6-13.58c2.45-.15,4.92,0,7.39,0Z" transform="translate(-50.96 -243.64)"/></svg>