<svg id="Camada_22" data-name="Camada 22" xmlns="http://www.w3.org/2000/svg" viewBox="0 0 171.37 213.63"><path d="M127.93,375.85a7.61,7.61,0,0,1,2.87-6.11,25.41,25.41,0,0,1,2.7-1.87l140.34-89.32c2.86-1.82,2.87-1.49,0-3.33L133.48,185.91a26.56,26.56,0,0,1-2.54-1.75,7.88,7.88,0,0,1,8.4-13.25,22.07,22.07,0,0,1,2.48,1.46l150.59,95.81c.86.56,1.75,1.08,2.61,1.63,5.66,3.61,5.66,10.57,0,14.17L268.1,301.07l-126,80.14a20.24,20.24,0,0,1-3.59,2A7.8,7.8,0,0,1,127.93,375.85Z" transform="translate(-127.89 -170.08)"/></svg>