<svg id="Camada_25" data-name="Camada 25" xmlns="http://www.w3.org/2000/svg" viewBox="0 0 312.67 336.15"><path d="M57.71,243.13c.46-30.61,11.05-60.1,32.78-85.29,19.48-22.58,44-37,73.13-43.44a128.53,128.53,0,0,1,37.81-2.74c29.12,2.2,55,12.56,77.33,31.47,23.26,19.74,38,44.67,44.61,74.48a128,128,0,0,1,2.73,36,133.51,133.51,0,0,1-32.75,80.2c-.94,1.09-1.89,2.17-2.87,3.22a1,1,0,0,0-.05,1.61c.46.51.86,1.06,1.3,1.59l75,92A33.6,33.6,0,0,1,369,435.1,7.87,7.87,0,0,1,356.85,445a24.45,24.45,0,0,1-1.9-2.16q-37.51-46-75-92c-1.77-2.18-1.75-2.16-4-.4a134.34,134.34,0,0,1-57.21,26.73,132,132,0,0,1-35.8,2.38,130.19,130.19,0,0,1-59.83-18.81q-49.21-30.14-62.21-86.51C58.72,264.88,57.87,255.34,57.71,243.13Zm252.56.37a118.22,118.22,0,1,0-117,120.33A118.22,118.22,0,0,0,310.27,243.5Z" transform="translate(-57.71 -111.3)"/></svg>