<svg id="Camada_15" data-name="Camada 15" xmlns="http://www.w3.org/2000/svg" viewBox="0 0 198.12 340.71"><path d="M212.69,419.52H151.81a21,21,0,0,1-3.08-.15,8,8,0,0,1-7.13-7.14c-1-7.26-1.93-14.54-2.9-21.81q-2.37-17.84-4.77-35.66-2.15-16.11-4.27-32.21-1.11-8.35-2.14-16.72a1.27,1.27,0,0,0-1.1-1.25l-.6-.15c-6.77-1.9-11-6.9-11.38-13.95a114,114,0,0,1,0-12.54c.46-8.63,6.18-14.37,14.83-14.94,3.34-.22,6.71-.1,10.07-.08,1.08,0,1.71-.2,2.06-1.41,2.18-7.57,6.92-13.31,13.19-17.85,6-4.32,12.78-6.81,19.85-8.67a120.1,120.1,0,0,1,26.2-3.75c1.43-.06,2.87-.12,4.31-.23s1.41-.13,1.47-1.6c0-.34,0-.68,0-1,0-5.55,0-11.1,0-16.66,0-2.41.2-2.43-2.28-2.94a37.27,37.27,0,0,1-13.37-5.64,53.92,53.92,0,0,1-22.43-30.47c-3.08-10.41-2.79-20.85-.25-31.29a96.71,96.71,0,0,1,17.84-36.25,202.73,202.73,0,0,1,21.21-23.21c2.34-2.23,5.11-2.8,8-3.08a4.85,4.85,0,0,1,3.76,1.4,63.79,63.79,0,0,1,4.89,4.69c8.31,9.5,16.43,19.15,22.77,30.15,4.66,8.1,9,16.33,11.56,25.37,3.49,12.35,3.65,24.68-1,36.74-6.36,16.3-18.08,26.8-35,31.48-1.86.52-1.89.48-1.89,2.45,0,5.76,0,11.52,0,17.28,0,2.77-.32,2.71,2.84,2.84,3.91.16,7.82.21,11.72.49a90.9,90.9,0,0,1,21,3.66,39.37,39.37,0,0,1,20.83,15.3,47.92,47.92,0,0,1,6,10.76,2,2,0,0,0,2.29,1.48c3.5-.06,7-.08,10.49,0a26.15,26.15,0,0,1,5.3.58,14.57,14.57,0,0,1,11.48,13.63,105.94,105.94,0,0,1,0,13.57c-.43,7-4.66,11.85-11.39,13.7-1,.28-1.57.63-1.72,1.86-.82,6.94-1.75,13.86-2.67,20.79q-2.36,17.74-4.73,35.47l-4.8,35.87c-.55,4.14-1.06,8.29-1.67,12.43-.78,5.28-4,8.24-9.35,8.65-.88.07-1.78,0-2.67,0Zm.64-114.41H146.68c-.55,0-1.1,0-1.65,0-1.55.05-1.63.11-1.43,1.69.36,2.92.78,5.84,1.17,8.76q2.14,16.11,4.28,32.21t4.34,32.4q1.46,10.9,2.91,21.81c.21,1.55.23,1.58,1.78,1.61,2.13,0,4.25,0,6.38,0H267.72c2.16,0,2.38.43,2.74-2.42,1.05-8.36,2.2-16.71,3.32-25.07q2.42-18.14,4.84-36.28,2.14-16,4.28-32c.37-2.73.41-2.73-2.31-2.73Zm6.9-120.45v8.64c0,3.06,0,3.09,2.92,1.95C241.6,188,249.83,170.39,248,152.74c-.8-7.54-3.32-14.52-6.56-21.31-6.63-13.93-15.9-26.05-25.89-37.68-.95-1.11-1-1.1-2.08-.08a149.51,149.51,0,0,0-21.32,24.72c-6.67,9.9-11.38,20.64-12.9,32.58-1.6,12.61,1.51,24,9.71,33.75a35,35,0,0,0,15.34,11.05c2.09.73,2.13.7,2.14-1.57,0-6.24,0-12.48,0-18.72a4.35,4.35,0,0,0-1.42-3.43q-8.34-8.24-16.59-16.57a14.28,14.28,0,0,1-2.09-2.52,6.8,6.8,0,0,1,5.32-10.36,7.28,7.28,0,0,1,5.89,2.41l7,7a14,14,0,0,0,1,1c.46.38.75.19.8-.36s0-1.09,0-1.64c0-4.66,0-9.33,0-14a19.57,19.57,0,0,1,.16-2.87,6.83,6.83,0,0,1,13.52.13,22.8,22.8,0,0,1,.14,2.87c0,4.52,0,9.05,0,13.58,0,.48,0,1,0,1.44a5.47,5.47,0,0,0,.23.95,3.52,3.52,0,0,0,1-.49c2.35-2.3,4.66-4.65,7-7a15.56,15.56,0,0,1,2.18-1.88,6.83,6.83,0,0,1,9.5,9.48,15.85,15.85,0,0,1-2,2.32c-5.46,5.5-10.92,11-16.45,16.43a4.45,4.45,0,0,0-1.47,3.61C220.3,178.63,220.23,181.65,220.23,184.66Zm-7.12,92.11H135.58c-1.44,0-2.88,0-4.32,0-2.72.06-3,.32-3.1,3.12-.07,2.33,0,4.66,0,7,0,4.12.22,4.32,4.27,4.32H294.24c.82,0,1.64-.08,2.46-.15a1.61,1.61,0,0,0,1.67-1.71c0-3.56.07-7.12,0-10.68,0-1.38-.52-1.73-2-1.85-1-.09-2.05-.07-3.08-.07Zm-1.65-13.87h54.9l1.85,0c.75,0,1-.33.62-1-.16-.3-.32-.6-.49-.9a28.57,28.57,0,0,0-18.07-14.19,82.11,82.11,0,0,0-15.8-2.55c-15.2-1-30.4-1.42-45.55.55A79.13,79.13,0,0,0,168.69,250c-5.42,2.24-10.12,5.46-13.39,10.47a12.61,12.61,0,0,0-.91,2.16,20.21,20.21,0,0,0,2.18.25Z" transform="translate(-114.25 -78.81)"/></svg>