<svg id="Camada_14" data-name="Camada 14" xmlns="http://www.w3.org/2000/svg" viewBox="0 0 330.23 156.16"><path d="M189.1,235c10.48,0,19.79.22,29.08,1.09A75.86,75.86,0,0,1,251,247.27a119.35,119.35,0,0,1,17.27,13.25c5,4.47,10.13,8.83,15.23,13.2,1.3,1.11,2.7,2.11,4.07,3.13A25.52,25.52,0,0,0,298,281.46c8.66,1.74,17.33,3.48,26,5.36q7.32,1.6,14.54,3.69A37.16,37.16,0,0,1,358,304.16c5.13,6.67,8.08,14.29,10.09,22.32a76.18,76.18,0,0,1,2.56,17.25c0,.62,0,1.23,0,1.85.15,5.56-5.56,10.27-10.37,10.18-6-.1-11.93,0-17.89,0q-6.69,0-13.37-.06a18.51,18.51,0,0,1-3.07-.23,7.85,7.85,0,0,1,.65-15.57c2.8-.21,5.62-.11,8.43-.12,6.44,0,12.89,0,19.33-.05,1.72,0,1.83-.12,1.53-1.74a82.12,82.12,0,0,0-5.17-17.51,35.7,35.7,0,0,0-5.84-9.15,21.65,21.65,0,0,0-11-6.9c-5.55-1.49-11.13-2.91-16.75-4.13-7.5-1.63-15-3.08-22.57-4.52a35.78,35.78,0,0,1-15.29-6.75c-5.21-4-10.27-8.22-15.29-12.47-4-3.4-7.8-7.12-11.88-10.47a68.42,68.42,0,0,0-24.6-13.32c-6.29-1.81-12.79-2.32-19.3-2.68a302.24,302.24,0,0,0-32.28,0A135.32,135.32,0,0,0,144.51,255a85.27,85.27,0,0,0-28.24,14.36q-6.42,5-12.81,10a91.24,91.24,0,0,1-35.17,16.79c-1.86.46-3.66,1.15-5.51,1.65a4.23,4.23,0,0,0-3.3,3.27c-1.06,4.25-2.37,8.45-3.11,12.76-1.37,7.92-1.41,16-1.49,24,0,2,0,2,2.1,2,3.91,0,7.82-.05,11.72,0a16.63,16.63,0,0,1,3.87.41,7.76,7.76,0,0,1,5.89,7.72,7.84,7.84,0,0,1-6.38,7.55,20.63,20.63,0,0,1-3.68.32c-5.69,0-11.39-.14-17.07,0a10.58,10.58,0,0,1-10.19-8.49,50.91,50.91,0,0,1-.68-6.12c-.08-10,0-20.05,1.63-30C43,306,44.5,301,45.83,295.86a19.86,19.86,0,0,1,1.47-3.39,14.09,14.09,0,0,1,7.55-7.23A75.05,75.05,0,0,1,64.57,282a79,79,0,0,0,31-15c3.27-2.6,6.59-5.15,9.85-7.77,14.16-11.39,30.33-18.17,48.15-21.33C165.73,235.68,178,235.3,189.1,235Z" transform="translate(-40.44 -235.03)"/><path d="M159.82,353.35a38,38,0,1,1-37.65-38.07A37.89,37.89,0,0,1,159.82,353.35Zm-16.07-.22a21.9,21.9,0,1,0-21.86,22.07A21.84,21.84,0,0,0,143.75,353.13Z" transform="translate(-40.44 -235.03)"/><path d="M315.75,353.4a38,38,0,1,1-37.6-38.12A37.86,37.86,0,0,1,315.75,353.4Zm-16.07-.08a21.9,21.9,0,1,0-21.84,21.88A21.84,21.84,0,0,0,299.68,353.32Z" transform="translate(-40.44 -235.03)"/><path d="M199.31,339.83c8.76,0,17.53,0,26.3,0a13.76,13.76,0,0,1,3.84.48,7.75,7.75,0,0,1,5.41,7.85,7.84,7.84,0,0,1-6,7.21,15.49,15.49,0,0,1-3.26.34q-26.19,0-52.39,0a14.67,14.67,0,0,1-2.65-.23,7.85,7.85,0,0,1,.83-15.6c2.73-.17,5.48-.12,8.22-.13,6.57,0,13.14,0,19.72,0Z" transform="translate(-40.44 -235.03)"/></svg>