<svg id="Camada_13" data-name="Camada 13" xmlns="http://www.w3.org/2000/svg" viewBox="0 0 262.14 327.07"><path d="M266.37,121.11h65.41a18.1,18.1,0,0,1,2.66.13,7,7,0,0,1,6.27,7c0,.83,0,1.65,0,2.47,0,4.32-.11,8.64,0,13a92,92,0,0,1-1.1,14.74q-2.2,16.92-4.38,33.85-2.38,18.35-4.75,36.7-2.17,16.83-4.32,33.65-2.35,18.25-4.73,36.5t-4.72,36.71c-1.4,10.87-2.69,21.76-4.28,32.61-.41,2.86-.92,5.59-.22,8.44a10.61,10.61,0,0,1,.11,2.46c0,7.34,0,14.68,0,22a23.11,23.11,0,0,1-.27,3.9c-1.29,7.72-6.8,12.66-14.64,13.12-2.53.14-5.07.14-7.61.14-6,0-12.06,0-18.1-.08a11.59,11.59,0,0,1-3.62-.54,6.8,6.8,0,0,1,.58-12.9,13.2,13.2,0,0,1,3.25-.39c7.13,0,14.26,0,21.39,0,1,0,1.92,0,2.88-.05,1.7-.13,2.19-.46,2.2-2.08q.09-12.12,0-24.26c0-1.65-.51-2-2.13-2.14-.68-.06-1.37,0-2.06,0-7.33,0-14.67,0-22-.06a13.8,13.8,0,0,1-3.45-.41,6.79,6.79,0,0,1-.19-13,11.7,11.7,0,0,1,3.44-.45q12.75-.06,25.5,0c1.86,0,1.85,0,2.1-1.89q3-23.34,6.05-46.69,3-23.14,5.93-46.29t6-46.29q3.6-27.84,7.15-55.67c.32-2.52.68-5,1-7.55.16-1.3.09-1.36-1.27-1.42-.48,0-1,0-1.44,0H209.67c-2.74,0-2.92-.58-2.56,2.93.82,7.84,1.52,15.69,2.27,23.54s1.52,15.69,2.28,23.53,1.49,15.56,2.24,23.34q1.33,13.92,2.69,27.83c.55,5.66,1.11,11.32,1.63,17q.9,10,1.73,20.06a21.15,21.15,0,0,1,.11,3.08,6.8,6.8,0,0,1-5.85,6.45,6.67,6.67,0,0,1-7.54-4.95,50.05,50.05,0,0,1-.87-6.71q-1.41-14.43-2.77-28.86-1.32-13.72-2.61-27.43c-.9-9.49-1.83-19-2.73-28.45q-1.12-11.77-2.23-23.54c-.75-7.85-1.54-15.69-2.27-23.54a136,136,0,0,1-1-16.4c.15-5.07.15-10.15,0-15.22a7.38,7.38,0,0,1,7.79-7.86q33.23.08,66.44,0Zm0,21.3H324l1.85,0a.87.87,0,0,0,1-1c0-1.17,0-2.33,0-3.5,0-3.14.29-2.92-2.85-2.92H208.84c-.55,0-1.1,0-1.65,0a1,1,0,0,0-1.11,1.13c0,1.23,0,2.47,0,3.7,0,2.76-.2,2.58,2.53,2.58Z" transform="translate(-78.61 -121.07)"/><path d="M166.83,310.08h56a48.69,48.69,0,0,1,10.43.89c12.32,2.7,20.16,11.19,21.78,23.72a58.13,58.13,0,0,1,.46,7q0,37.44,0,74.88a42.05,42.05,0,0,1-1.19,10.6c-2.81,10.87-9.78,17.47-20.65,20a47.62,47.62,0,0,1-11,1H110.28a41.77,41.77,0,0,1-10.8-1.21c-11-2.92-17.64-10.09-20-21.17a40.74,40.74,0,0,1-.86-8.16q-.09-38.47,0-76.94a41.54,41.54,0,0,1,1-8.76c2.6-11.79,10.87-19.47,22.85-21.17a77.28,77.28,0,0,1,10.65-.62C131,310,148.94,310.07,166.83,310.08Zm.26,51.79H96.54c-2,0-2,0-2,1.87q0,26.94,0,53.89a27.75,27.75,0,0,0,.6,5.29c1,4.91,4,7.88,8.94,8.7a48.17,48.17,0,0,0,7.77.61c14.54.06,29.07,0,43.61,0h66.84a31.91,31.91,0,0,0,9-.92,10.17,10.17,0,0,0,7.42-7.52,29.52,29.52,0,0,0,.85-7.94q0-25.62,0-51.22c0-3,.33-2.78-2.74-2.78Zm-.26-14H236c3.61,0,3.62,0,3.61-3.56a38.16,38.16,0,0,0-.71-9.41c-1.13-4.53-3.95-7.32-8.49-8.18A39.44,39.44,0,0,0,223,326q-55.12-.06-110.26,0c-2.19,0-4.39.06-6.57.26-6.84.65-10.31,3.85-11.27,10.65a69.34,69.34,0,0,0-.37,8.41c0,2.7-.27,2.54,2.56,2.54Z" transform="translate(-78.61 -121.07)"/><path d="M285.71,261.63c-.31,2.14-.44,4.41-1,6.59A19.22,19.22,0,0,1,268,283a24.46,24.46,0,0,1-9-.47c-9.38-2.35-15-10.4-13.9-20.22,1.36-12.34,6.33-23.15,14.15-32.72,1-1.27,2-2.59,3.1-3.83a11.34,11.34,0,0,1,2.07-2,5.63,5.63,0,0,1,8.15,1.37,22.79,22.79,0,0,1,1.65,2.6,90.29,90.29,0,0,1,10.6,26.82C285.26,256.84,285.4,259.18,285.71,261.63Zm-12.7-.08c-.51-7.5-3.15-14.09-6.17-20.57-.22-.47-.53-.6-.9-.12a6.2,6.2,0,0,0-.47.67A54.29,54.29,0,0,0,258,260.74a24.29,24.29,0,0,0-.2,4.9,4.64,4.64,0,0,0,3.36,4.25,10.1,10.1,0,0,0,7.24,0,6,6,0,0,0,4.07-4.53C272.74,264,272.85,262.67,273,261.55Z" transform="translate(-78.61 -121.07)"/><path d="M167.23,411.38c-9.25,0-18.5-.15-27.75,0-6.95.15-11.34-3.89-11.08-11.15.17-4.58,0-9.18.06-13.77a14.66,14.66,0,0,1,.53-3.85c1.13-3.84,4.65-6.29,9.09-6.43,1.16,0,2.33,0,3.49,0H194a31.34,31.34,0,0,1,3.49.15c4.92.53,8.31,3.8,8.49,8.72.21,5.81.21,11.65,0,17.47-.19,5-3.76,8.32-8.72,8.74-.89.07-1.78.05-2.67.06Zm.22-21.28h-22.4l-1.64,0c-.77,0-1.12.36-1.11,1.13,0,1.65,0,3.29,0,4.93,0,1,.36,1.4,1.33,1.33.41,0,.82,0,1.23,0h44.81a5.87,5.87,0,0,0,1.63-.06c.35-.11.84-.55.85-.86q.12-2.77,0-5.55c0-.31-.5-.76-.86-.87a5.51,5.51,0,0,0-1.63-.07Z" transform="translate(-78.61 -121.07)"/></svg>