<svg id="Camada_19" data-name="Camada 19" xmlns="http://www.w3.org/2000/svg" viewBox="0 0 183.91 346.91"><path d="M121.37,280.41V136.23a44.88,44.88,0,0,1,.8-9.61c2.31-10.65,9.67-17.58,20.5-19.14a46.35,46.35,0,0,1,6.55-.49q63.66,0,127.32,0a45.28,45.28,0,0,1,8.78.76c11,2.19,18,9.7,19.47,20.81a63.64,63.64,0,0,1,.46,8.4q0,102,0,204,0,41.87,0,83.71a48.45,48.45,0,0,1-.8,9.4c-2.13,10.66-9.39,17.5-20.16,19.18a47.64,47.64,0,0,1-7.16.54q-63.77,0-127.52,0a38.83,38.83,0,0,1-9.79-1.07c-9.94-2.55-16.45-9.82-17.91-20.23a61.66,61.66,0,0,1-.5-8.6Q121.35,352.19,121.37,280.41Zm170-16.28V162.52c0-9.26.05-18.52,0-27.77a29.58,29.58,0,0,0-.88-6.69,8.16,8.16,0,0,0-6.21-6.25,28.7,28.7,0,0,0-6.89-.91q-64.49-.06-129,0a23.8,23.8,0,0,0-4.29.42c-4.84.9-7.53,3.51-8.36,8.37a42.8,42.8,0,0,0-.48,7.16q0,128.88,0,257.75c0,3.26-.29,2.89,2.83,2.9H288.44c3.26,0,3,.47,3-2.95ZM213.45,411.38h-76.1c-2.09,0-2.11,0-2.11,2.17,0,4.32,0,8.64,0,13a28.21,28.21,0,0,0,.54,5.1,9.18,9.18,0,0,0,7.92,7.83,42.81,42.81,0,0,0,7.15.55q62.43,0,124.84,0a42.66,42.66,0,0,0,4.52-.15,23,23,0,0,0,4-.78,8.44,8.44,0,0,0,6.21-6.26,25.31,25.31,0,0,0,.87-5.86c.14-4.39.06-8.78.06-13.16,0-2.72.09-2.42-2.48-2.42Z" transform="translate(-121.37 -106.97)"/><path d="M212.69,142.08H194a19.51,19.51,0,0,1-2.86-.15,6.82,6.82,0,0,1,.1-13.54,19.67,19.67,0,0,1,2.66-.13h37.8a19.82,19.82,0,0,1,2.67.13,6.83,6.83,0,0,1,.1,13.54,19.65,19.65,0,0,1-2.87.15Z" transform="translate(-121.37 -106.97)"/><path d="M206.91,425.66a6.5,6.5,0,0,1,13,0,6.58,6.58,0,0,1-6.52,6.58A6.51,6.51,0,0,1,206.91,425.66Z" transform="translate(-121.37 -106.97)"/><path d="M162.55,425.51a6.41,6.41,0,1,1,6.16,6.6A6.36,6.36,0,0,1,162.55,425.51Z" transform="translate(-121.37 -106.97)"/><path d="M260.24,432.05a6.36,6.36,0,1,1-.05-12.72,6.42,6.42,0,0,1,6.34,6.25A6.33,6.33,0,0,1,260.24,432.05Z" transform="translate(-121.37 -106.97)"/></svg>