<svg id="Camada_9" data-name="Camada 9" xmlns="http://www.w3.org/2000/svg" viewBox="0 0 292.3 285.27"><path d="M177.6,230.8H283.12c5.31,0,8.62,3.29,8.61,8.58,0,.89,0,1.78,0,2.67,0,2.47,0,2.47,2.3,1.9l10.17-2.54,40.88-10.25c5.81-1.46,10.46,2.19,10.45,8.19q0,75.6,0,151.19c0,1.37.06,2.74,0,4.11a7.81,7.81,0,0,1-9.1,7.74c-2.84-.41-5.62-1.24-8.41-1.93Q316,395,294.09,389.51l-1.19-.31c-.77-.18-1.19.08-1.18.91,0,1-.06,2.06,0,3.09a9,9,0,0,1-9.23,9.43c-.68,0-1.37,0-2.06,0q-103.26,0-206.52,0a24.29,24.29,0,0,1-4.09-.25,7.8,7.8,0,0,1-6.48-6.8,15.65,15.65,0,0,1-.11-2.05q0-75.9,0-151.81a34.91,34.91,0,0,1,.12-3.69,7.92,7.92,0,0,1,7.48-7.19c.48,0,1,0,1.44,0H177.6Zm-.29,15.94q-47.61,0-95.23,0c-3.16,0-3-.44-3,3V367.58c0,5.76,0,11.51,0,17.27,0,1.84,0,1.84,1.83,1.88H273c3,0,2.75.24,2.75-2.8V249.63c0-3.22.3-2.89-2.85-2.89Q225.12,246.72,177.31,246.74Zm162.26,70V251.54c0-2.57,0-2.58-2.59-1.93l-42.47,10.61c-2.8.7-2.81.68-2.81,3.52v105.9c0,.55,0,1.1,0,1.64-.07,1,.36,1.38,1.36,1.62,14.63,3.61,29.25,7.29,43.88,10.9,2.49.62,2.63,1.26,2.63-2.09Z" transform="translate(-63.22 -117.37)"/><path d="M223.53,225.44a54,54,0,1,1,54.06-54A54,54,0,0,1,223.53,225.44Zm38-53.84c.25-20.77-16.63-37.85-37.73-38.17-20.56-.32-38,16.66-38.29,37.22a38,38,0,1,0,76,.95Z" transform="translate(-63.22 -117.37)"/><path d="M120.83,225.47A36.33,36.33,0,1,1,157.11,189,36.39,36.39,0,0,1,120.83,225.47Zm-.28-56.6a20.28,20.28,0,1,0,20.53,20A20.18,20.18,0,0,0,120.55,168.87Z" transform="translate(-63.22 -117.37)"/><path d="M223.55,197.09a25.68,25.68,0,1,1,25.69-25.56A25.54,25.54,0,0,1,223.55,197.09Zm0-16a9.66,9.66,0,1,0-9.67-9.65A9.69,9.69,0,0,0,223.57,181.07Z" transform="translate(-63.22 -117.37)"/><path d="M120.92,181.29a7.87,7.87,0,1,1-8,7.67A7.88,7.88,0,0,1,120.92,181.29Z" transform="translate(-63.22 -117.37)"/></svg>