<svg id="Camada_21" data-name="Camada 21" xmlns="http://www.w3.org/2000/svg" viewBox="0 0 279.88 431.25"><path d="M212.76,511.65H116.69a24,24,0,0,1-3.89-.25,7.85,7.85,0,0,1,.32-15.53,27.08,27.08,0,0,1,3.49-.12H202.4c3.37,0,3,.24,3-3q0-28.8,0-57.6c0-3.21.54-2.88-3-3.07a155.56,155.56,0,0,1-35.2-5.91,121.85,121.85,0,0,1-46.32-25,60.85,60.85,0,0,1-21.06-39.54,64,64,0,0,1,.37-16.82,69.57,69.57,0,0,1,3.27-14.61,1.4,1.4,0,0,0-.59-1.89q-1.8-1.38-3.49-2.89a59.86,59.86,0,0,1-18.91-30.93c-3.56-14.5-.82-28.18,6.72-40.92a75.58,75.58,0,0,1,20.36-22.09,101.56,101.56,0,0,1,24.09-13.62,2.69,2.69,0,0,0,1.75-2,111.58,111.58,0,0,1,32.33-51.63c8.82-8,19-13.77,30.75-16.2,21.07-4.36,40.13.14,56.91,13.74a37.83,37.83,0,0,1,11.6,15.71,2.84,2.84,0,0,0,2.49,2,102.88,102.88,0,0,1,25.16,7.46c14.53,6.61,25.83,16.69,33,31.07a46.14,46.14,0,0,1,4.82,25.92c-.33,3.2-.8,6.39-1.32,9.56a29.92,29.92,0,0,1-2.9,9,1.62,1.62,0,0,0,.39,2.28c10.92,10.26,17,23.06,19.36,37.69,1.8,11.1,1.11,22.06-3.08,32.56a68.35,68.35,0,0,1-20.17,27.86,3.8,3.8,0,0,0-1.32,1.95,56.65,56.65,0,0,1-7.32,17.78,82,82,0,0,1-17.62,20.5c-13.08,11.07-27.55,19.63-44.21,24.15A135.88,135.88,0,0,1,223.31,432c-2,.1-2,.12-2,2.16v59.66c0,1.87,0,1.87,2,1.9h85.58c1.09,0,2.2,0,3.29.07a7.9,7.9,0,0,1,7.32,7.56,7.82,7.82,0,0,1-6.75,8.05,24,24,0,0,1-3.69.22Zm8.52-189.07q0,18,0,36c0,.73.12,1.47.18,2.2a14,14,0,0,0,1.69-1.57q16.5-21.16,33-42.36a16.38,16.38,0,0,1,2.35-2.57,6.81,6.81,0,0,1,10.49,8.2,16,16,0,0,1-1.8,2.74q-6.74,8.7-13.51,17.38l-31.18,40.1a4.2,4.2,0,0,0-1.23,2.73c0,10.7,0,21.39,0,32.09,0,1.61.05,1.7,1.62,1.52,5-.57,10-1,14.88-1.84,20.08-3.44,37.45-12.47,52.46-26.11,8.36-7.6,14.75-16.57,18-27.53a20,20,0,0,0,.91-3.35,7.52,7.52,0,0,1,2.18-4.54c1.21-1.21,2.52-2.33,3.77-3.5,7.5-7,13.43-15.05,16.48-24.92,3.37-10.92,2.62-21.81-1-32.54-3.12-9.16-8.18-17-16-22.9a41.51,41.51,0,0,1-3.38-2.69,5.73,5.73,0,0,1,.37-9A9,9,0,0,0,315.1,255a88.54,88.54,0,0,0,1.95-9.23,36.59,36.59,0,0,0-4.79-24.92,52.47,52.47,0,0,0-16.48-17.25c-8.57-5.6-18-8.82-28-10.71a45.79,45.79,0,0,0-8.12-1c-3.53,0-5.55-2.93-6.21-6.59a13.32,13.32,0,0,0-.71-3,26.21,26.21,0,0,0-7-9.54c-13-11.1-28-15.13-44.84-12.12a52.33,52.33,0,0,0-26.1,13.17A98.68,98.68,0,0,0,146.23,219c-.54,1.77-1.08,3.54-1.72,5.28a6.57,6.57,0,0,1-4.09,4.06c-1.8.66-3.59,1.34-5.32,2.15a100.21,100.21,0,0,0-23.48,14.66c-6.51,5.58-12.09,12-15.59,19.91-5.33,12.06-5.31,24,.77,35.88a50.14,50.14,0,0,0,13.71,16.73c1.93,1.53,3.89,3.05,5.71,4.71a5.86,5.86,0,0,1,.83,8.16,12.22,12.22,0,0,0-2.26,5c-.73,3.62-1.47,7.25-2,10.91a49.47,49.47,0,0,0-.35,13.53,48.38,48.38,0,0,0,16,30.66,98.24,98.24,0,0,0,14,10.48c18.79,11.75,39.58,16.77,61.45,18.1,1.35.08,1.41,0,1.48-1.3,0-.48,0-1,0-1.44,0-10,0-19.89,0-29.83a6.48,6.48,0,0,0-1.49-4.3q-22.09-28.29-44.09-56.65a20,20,0,0,1-2-2.86,6.83,6.83,0,0,1,10.65-8.28,19.59,19.59,0,0,1,2.16,2.48q16.49,21.18,33,42.37c.41.52.92,1,1.38,1.46a12.77,12.77,0,0,0,.36-2.08q0-36.21,0-72.41a7.51,7.51,0,0,0-1.13-4.05Q196,268.6,187.74,254.81a18.22,18.22,0,0,1-1.52-2.9,6.81,6.81,0,0,1,6.21-9.33,7,7,0,0,1,6.28,3.63c1.69,2.74,3.32,5.52,5,8.27.38.62.88,1.17,1.32,1.75a16.31,16.31,0,0,0,.32-2.3c0-13,0-26.05,0-39.08a15.58,15.58,0,0,1,.4-3.86,7.83,7.83,0,0,1,15.07,0,15.59,15.59,0,0,1,.41,3.86q0,20,0,39.91c0,.54,0,1.09,0,1.64a4.21,4.21,0,0,0,.21.75,3.71,3.71,0,0,0,.74-.54,10.86,10.86,0,0,0,.78-1.21q9.31-14.91,18.64-29.82a21.43,21.43,0,0,1,1.75-2.53A6.84,6.84,0,0,1,255,230.15a24.6,24.6,0,0,1-1.71,3q-15.42,24.68-30.86,49.34a6.91,6.91,0,0,0-1.13,3.85C221.3,298.45,221.28,310.51,221.28,322.58Z" transform="translate(-78.89 -80.4)"/><path d="M322.76,152.36a36,36,0,1,1,36-36.13A36,36,0,0,1,322.76,152.36Zm-.13-57.91a22,22,0,1,0,22.17,21.73A21.86,21.86,0,0,0,322.63,94.45Z" transform="translate(-78.89 -80.4)"/></svg>