<svg id="Camada_18" data-name="Camada 18" xmlns="http://www.w3.org/2000/svg" viewBox="0 0 228.29 326.74"><path d="M212.91,433.64H110.27c-1,0-2.06,0-3.09,0-4.9-.2-8.18-3.61-8.05-8.54.11-3.7.4-7.39.63-11.09q.94-15,1.9-30,1.17-18.48,2.32-36.95.92-14.58,1.81-29.15,1.14-18.27,2.29-36.54.93-14.77,1.84-29.56,1.13-18.17,2.28-36.33c.33-5.27.62-10.54,1-15.8a12.48,12.48,0,0,1,.77-3.8c1.39-3.34,4.13-4.83,7.65-4.9,4.32-.08,8.64-.06,13-.06,4.52,0,9,0,13.57.06a13.26,13.26,0,0,1,3.45.43,7.84,7.84,0,0,1-.05,15,13.8,13.8,0,0,1-3.45.41c-5.63,0-11.25,0-16.87.06a6.38,6.38,0,0,0-1.64,0,1.43,1.43,0,0,0-.9.83,16.78,16.78,0,0,0-.28,2.66q-1.32,21.56-2.65,43.11-1.53,24.42-3.09,48.85c-.77,12.18-1.49,24.36-2.25,36.54q-1.53,24.42-3.09,48.85-.87,13.65-1.71,27.3c0,.41,0,.83-.06,1.23-.11.95.23,1.44,1.24,1.38.55,0,1.1,0,1.65,0H308.32c3.07,0,2.86.34,2.66-2.94q-1.62-26.17-3.26-52.34L304,302.91q-1.63-26.07-3.26-52.14c-.85-13.62-1.68-27.24-2.59-40.85-.23-3.46.31-3-3.26-3-5.49,0-11,0-16.46,0a13.78,13.78,0,0,1-3.45-.39,7.82,7.82,0,0,1,.15-15.13,14.14,14.14,0,0,1,3.25-.36q13.26,0,26.54,0c5.05,0,8.27,3.23,8.56,8.3.59,10.27,1.26,20.53,1.9,30.79.46,7.39.9,14.78,1.37,22.17q1.15,18.48,2.32,37,.9,14.26,1.78,28.53,1,15.41,1.93,30.79.9,14.47,1.79,28.95.94,15.09,1.9,30.17c.34,5.34.72,10.67.94,16a11,11,0,0,1-.66,4.41,8.37,8.37,0,0,1-7.9,5.58c-.89,0-1.78,0-2.67,0Z" transform="translate(-99.13 -106.91)"/><path d="M262.72,222.83c0,10,0,18.43,0,26.86a21.13,21.13,0,0,1-.24,3.9,11.25,11.25,0,0,1-1.23,3.65,6.34,6.34,0,0,1-10.92-.09,9.88,9.88,0,0,1-1.29-4.92c-.06-3.77-.17-7.54-.13-11.31.15-14.75-.16-29.49-1.25-44.2-1.06-14.23-2.77-28.38-6.47-42.21a88.13,88.13,0,0,0-6.21-17,37.27,37.27,0,0,0-8.1-11.31c-6.05-5.47-13-6.72-20.64-4.09a20.35,20.35,0,0,0-8.43,6.07,45.86,45.86,0,0,0-7.41,12A114.06,114.06,0,0,0,183,165a288.88,288.88,0,0,0-4.58,40.43c-.69,12.94-.82,25.9-.7,38.86a64.51,64.51,0,0,1-.56,9.63,6.39,6.39,0,0,1-8.76,5.16,5.93,5.93,0,0,1-3.83-4.27,26.24,26.24,0,0,1-.68-5.28c-.21-13.92-.11-27.84.52-41.75.48-10.42,1.27-20.8,2.65-31.14,1.75-13.07,4.25-26,9.05-38.32a68.08,68.08,0,0,1,8.39-15.75c4.42-6,9.86-10.85,17-13.52,13.21-5,27.61-1.25,37.43,9.63a62,62,0,0,1,11.14,18.62A141.28,141.28,0,0,1,257.9,166a309.61,309.61,0,0,1,4.18,40.07C262.35,212.19,262.55,218.29,262.72,222.83Z" transform="translate(-99.13 -106.91)"/><path d="M213,206.89c-6.3,0-12.61,0-18.91,0a14.74,14.74,0,0,1-3.25-.31,7.83,7.83,0,0,1,0-15.27,12.32,12.32,0,0,1,2.85-.31q19.31,0,38.62,0a12.69,12.69,0,0,1,3.25.4,7.84,7.84,0,0,1,0,15.08,13.78,13.78,0,0,1-3.45.39C225.7,206.91,219.33,206.89,213,206.89Z" transform="translate(-99.13 -106.91)"/></svg>