<svg id="Camada_12" data-name="Camada 12" xmlns="http://www.w3.org/2000/svg" viewBox="0 0 248.55 274.05"><path d="M207.33,190.56h94.83c1.88,0,1.9,0,2.34-1.79,1.69-6.79,3.42-13.56,5-20.36a9.58,9.58,0,0,1,5.38-6.82c8.79-4.34,17.54-8.77,26.32-13.12a13,13,0,0,1,3.48-1.18,7.82,7.82,0,0,1,5.9,14,17.73,17.73,0,0,1-2.82,1.67c-7.1,3.57-14.2,7.16-21.35,10.64a4.59,4.59,0,0,0-2.62,3.32c-4.95,18.84-8.83,37.91-12.83,56.95q-9.15,43.56-18.35,87.11c-.7,3.35-1.45,6.7-2.1,10.06a22.41,22.41,0,0,0-.42,4.08q0,15.84,0,31.68c0,5.49-3.3,8.79-8.85,8.79l-90.72,0c-13.51,0-27,0-40.52,0a14.92,14.92,0,0,1-3.66-.37,7.54,7.54,0,0,1-5.73-7.6,7.63,7.63,0,0,1,5.77-7.58,14.92,14.92,0,0,1,3.66-.38q46.08,0,92.16,0h29c.55,0,1.1,0,1.64,0,1,.09,1.31-.45,1.3-1.36,0-1.51,0-3,0-4.53v-14.4c0-2,0-2-1.95-2.43l-51.59-12.29Q177,314.21,133.24,303.87c-4.13-1-6.22-3.25-7.09-7.42-4.29-20.59-8.76-41.15-13.18-61.72-2.5-11.66-5-23.32-7.54-35-1.32-6,3.09-9.28,7.48-9.27,31.47.1,62.94,0,94.42,0Zm3.59,13.87H123.71l-2,0c-.62,0-.85.35-.76.93.06.41.15.81.23,1.21l3,14.07q7.28,34.07,14.53,68.14a3.05,3.05,0,0,0,2.71,2.73q65.79,15.6,131.57,31.29c3.28.78,2.77,1.21,3.49-2.19,3-14.14,6-28.29,8.94-42.43q7.49-35.5,15-71c.59-2.76.57-2.76-2.23-2.76Z" transform="translate(-105.19 -147.19)"/><path d="M172.31,399.49a21.18,21.18,0,1,1-21.17-21.23A21.31,21.31,0,0,1,172.31,399.49Zm-14.16-.05a7,7,0,0,0-7-7.06,7.09,7.09,0,1,0,.07,14.18A7,7,0,0,0,158.15,399.44Z" transform="translate(-105.19 -147.19)"/><path d="M243.15,400.09a21.14,21.14,0,1,1,21,21.15A21.06,21.06,0,0,1,243.15,400.09Zm28.21.27a7.17,7.17,0,0,0-6.93-7.44,7.17,7.17,0,0,0-.35,14.33A7.17,7.17,0,0,0,271.36,400.36Z" transform="translate(-105.19 -147.19)"/></svg>