<svg id="Camada_28" data-name="Camada 28" xmlns="http://www.w3.org/2000/svg" viewBox="0 0 198.18 277.33"><path d="M213.62,148.31a78.86,78.86,0,1,1-79,78.4A78.91,78.91,0,0,1,213.62,148.31ZM213.38,290a62.81,62.81,0,1,0-62.72-62.91A62.89,62.89,0,0,0,213.38,290Z" transform="translate(-114.22 -148.31)"/><path d="M312.4,418.12a7.86,7.86,0,0,1-12.08,6.22,17.76,17.76,0,0,1-2.94-2.55q-41.1-41.06-82.18-82.14c-2.12-2.13-1.62-2.15-3.7-.07q-41.1,41.07-82.17,82.15A22.13,22.13,0,0,1,126.9,424a7.87,7.87,0,0,1-11-11.11,25.47,25.47,0,0,1,2.23-2.42q42-42,84-84.05c1.65-1.65,3.28-3.31,4.92-5,3.79-3.83,8.55-3.85,12.33-.06q6.26,6.26,12.49,12.53l76.48,76.49a30,30,0,0,1,2.24,2.41A7.92,7.92,0,0,1,312.4,418.12Z" transform="translate(-114.22 -148.31)"/></svg>