<svg id="Camada_16" data-name="Camada 16" xmlns="http://www.w3.org/2000/svg" viewBox="0 0 297.15 276.14"><path d="M213.05,439.76H129.14c-5,0-7.8-2.81-7.79-7.75q0-65.92,0-131.84c0-5.69,0-11.38,0-17.07,0-.21,0-.41,0-.62-.06-1.11-.22-1.24-1.19-.84-.44.18-.87.41-1.3.62l-15.06,7.56c-4.41,2.21-8.26.92-10.46-3.47l-26.82-53.7c-.4-.8-.81-1.59-1.14-2.42a7.05,7.05,0,0,1,2.45-8.76c.38-.29.78-.55,1.18-.81q40.63-27.09,81.26-54.21a15.17,15.17,0,0,1,9.19-2.82c7.95.17,15.91.13,23.86,0a9.56,9.56,0,0,1,8.27,4c6.74,8.65,13.66,17.17,20.51,25.73a4.28,4.28,0,0,0,.82.92.87.87,0,0,0,.83,0,6.51,6.51,0,0,0,.94-1.08c6.94-8.68,13.9-17.33,20.79-26a8.45,8.45,0,0,1,7.06-3.5c9.05,0,18.1,0,27.15,0a9.45,9.45,0,0,1,5.33,1.89q11.88,8,23.78,15.86l58.85,39.24a12.9,12.9,0,0,1,2.08,1.67,6.83,6.83,0,0,1,1.68,7.57,25.08,25.08,0,0,1-1.29,2.79L333.3,286.35c-2.2,4.39-6.05,5.68-10.45,3.48l-15.26-7.65c-.43-.22-.85-.43-1.29-.63-.73-.33-1,0-1,.72,0,1.37,0,2.74,0,4.11q0,63.15-.05,126.29v18.09c0,.76,0,1.51,0,2.27a7,7,0,0,1-6.41,6.66,16.26,16.26,0,0,1-1.85.06H213.05ZM135.29,347.2q0,37.74,0,75.48c0,3.63-.45,3.19,3.15,3.19H288.39c.48,0,1,0,1.44,0,1.45-.06,1.49-.07,1.51-1.54,0-3.56.06-7.13.06-10.69q0-70.75,0-141.51a17.29,17.29,0,0,1,.33-3.88,6.77,6.77,0,0,1,8.53-5,12,12,0,0,1,2.27.93c6.26,3.11,12.5,6.26,18.76,9.37,2.51,1.25,2.13,1.49,3.42-1.08L345,231.81c.19-.37.35-.75.56-1.11a1.08,1.08,0,0,0-.45-1.69c-1.69-1-3.35-2.15-5-3.25q-35.33-23.55-70.64-47.13a6.17,6.17,0,0,0-3.64-1.1c-6.31.05-12.62.06-18.92,0a3.71,3.71,0,0,0-3.27,1.62c-8.09,10.21-16.25,20.37-24.37,30.55-3.5,4.39-8.47,4.39-12,0C199.17,199.45,191,189.24,182.84,179a3.51,3.51,0,0,0-3.14-1.45q-9.36.08-18.72,0a7,7,0,0,0-4.2,1.27q-37.2,24.85-74.43,49.64c-.34.23-.67.47-1,.69a.91.91,0,0,0-.37,1.38c.2.36.36.74.54,1.11q10.25,20.5,20.51,41c.21.43.44.85.66,1.28a.76.76,0,0,0,1.19.35c.36-.2.73-.37,1.1-.55q9.48-4.74,18.94-9.47a14.29,14.29,0,0,1,2.47-1,6.8,6.8,0,0,1,8.54,5,14.25,14.25,0,0,1,.31,3.06q.08,7.92.07,15.84Z" transform="translate(-64.76 -163.62)"/></svg>