<svg id="Camada_29" data-name="Camada 29" xmlns="http://www.w3.org/2000/svg" viewBox="0 0 342.44 292.51"><path d="M213.6,148.31a78.86,78.86,0,1,1-79,78.42A78.91,78.91,0,0,1,213.6,148.31ZM213.31,290a62.81,62.81,0,1,0-62.65-63A62.89,62.89,0,0,0,213.31,290Z" transform="translate(-43.45 -148.31)"/><path d="M114.22,418.12a8.23,8.23,0,0,1,1.91-5.56c.66-.78,1.39-1.51,2.12-2.24l86.23-86.23c1-1,2-2.08,3-3.07a8,8,0,0,1,11.6,0c1,1,2,2.06,3,3.07l86.22,86.24a24,24,0,0,1,2.37,2.57,7.86,7.86,0,0,1-11,11,24,24,0,0,1-2.57-2.37l-82-82c-2-2-1.57-2-3.57,0q-41.08,41.09-82.17,82.15a18.69,18.69,0,0,1-3.1,2.68,7.86,7.86,0,0,1-12-6.24Z" transform="translate(-43.45 -148.31)"/><path d="M286.91,313.12c0-2.06,0-4.12,0-6.17,0-1.65,0-1.71,1.72-1.77a57.24,57.24,0,0,0,16-2.65c23.28-7.64,38.25-23.32,43.35-47.27,4.88-23-1.89-42.88-18.86-59.07-10-9.58-22.31-14.73-36.07-16.32-1.5-.17-3-.15-4.52-.23s-1.58-.1-1.58-1.7q0-6.37,0-12.75c0-1.62.08-1.66,1.82-1.62a77.83,77.83,0,0,1,20.44,3.26,78.85,78.85,0,0,1,20.53,141.6,78.08,78.08,0,0,1-40.26,12.77c-.41,0-.82,0-1.23,0-1,.1-1.32-.38-1.31-1.33C286.93,317.64,286.91,315.38,286.91,313.12Z" transform="translate(-43.45 -148.31)"/><path d="M142.35,170.52c0,2.06,0,4.12,0,6.17,0,1.8,0,1.81-1.78,1.87a56.55,56.55,0,0,0-15.77,2.62c-22.7,7.4-37.38,22.61-43.17,45.81-7.8,31.23,10.6,64,41.17,73.94a60.44,60.44,0,0,0,17.94,3.19c1.56,0,1.59.06,1.6,1.62q0,6.38,0,12.75c0,1.64,0,1.67-1.77,1.63A73.44,73.44,0,0,1,109,312.6c-24.26-12-39.22-31.3-43.95-57.94a78.5,78.5,0,0,1,63.81-90.87c3.9-.68,7.89-.88,11.85-1.21,1.55-.13,1.59,0,1.6,1.57C142.37,166.27,142.35,168.4,142.35,170.52Z" transform="translate(-43.45 -148.31)"/><path d="M286.91,343.54c0-2.81,0-5.62,0-8.43,0-1.32.2-1.44,1.46-1.18a8.79,8.79,0,0,1,4.55,2.64c3.56,3.61,7.15,7.2,10.73,10.79l78.24,78.25a22.81,22.81,0,0,1,2.47,2.74,7.86,7.86,0,0,1-11,11,18.54,18.54,0,0,1-2.3-2q-41.39-41.37-82.78-82.73a4.23,4.23,0,0,1-1.44-3.41C287,348.62,286.91,346.08,286.91,343.54Z" transform="translate(-43.45 -148.31)"/><path d="M142.35,332.84v2.31c0,4.93-.06,9.87,0,14.8a4.75,4.75,0,0,1-1.55,3.77q-36.32,36.22-72.57,72.51c-3.44,3.45-6.87,6.9-10.33,10.32a15.15,15.15,0,0,1-2.35,2,7.84,7.84,0,0,1-10.85-10.85,20.29,20.29,0,0,1,2.55-2.94q42.8-42.83,85.62-85.63c1.31-1.31,2.58-2.66,3.91-3.94A7.34,7.34,0,0,1,142.35,332.84Z" transform="translate(-43.45 -148.31)"/></svg>