<svg id="Camada_7" data-name="Camada 7" xmlns="http://www.w3.org/2000/svg" viewBox="0 0 278.27 381.38"><path d="M220.23,130.14c0,7.34,0,14.67,0,22a6.5,6.5,0,0,0,1.13,3.84q10.44,15.54,20.76,31.15a4.76,4.76,0,0,0,2.87,2.09,120.32,120.32,0,0,1,85.38,93.6,115,115,0,0,1,1.93,27.83c-1.4,26-10.08,49.25-26.35,69.59a120.42,120.42,0,0,1-99,45A120.36,120.36,0,0,1,97.64,342.53a121.87,121.87,0,0,1-5.9-32.26,119,119,0,0,1,2.68-31,120.08,120.08,0,0,1,29.5-56.33A118.91,118.91,0,0,1,182,188.45a5,5,0,0,0,3.2-2.27q10-15.1,20.07-30.12a6.49,6.49,0,0,0,1.17-3.83q0-21.49,0-43a24,24,0,0,1,.15-3.29,6.82,6.82,0,0,1,13.51-.08,22.7,22.7,0,0,1,.16,3.08Q220.25,119.54,220.23,130.14ZM153.64,332.08c-1.46-.16-1.54-.08-1.27,1.39a132.38,132.38,0,0,0,8,26.92,3,3,0,0,0,1.95,1.9,134.05,134.05,0,0,0,24.5,6c1.77.27,1.82.18,1.63-1.66,0-.2,0-.41-.08-.61-.37-3.33-.82-6.66-1.1-10-.56-6.56-1-13.11-1.52-19.67-.15-1.89-.14-1.87-2-2-5.12-.33-10.25-.64-15.37-1C163.46,333,158.55,332.51,153.64,332.08Zm-.52-51.89c2.39-.25,4.84-.57,7.3-.75,7.92-.58,15.85-1.14,23.79-1.63,1.2-.07,1.48-.56,1.52-1.62.11-2.46.25-4.93.48-7.38.71-7.65,1.46-15.28,2.2-22.92.15-1.56,0-1.71-1.53-1.46a140.24,140.24,0,0,0-25.27,6.37,3,3,0,0,0-2.06,2c-1.59,4.81-3.37,9.57-4.78,14.43-1.1,3.81-1.76,7.74-2.59,11.63C152,279.59,151.89,280.37,153.12,280.19Zm85.94,85.58c-.1,1.29,0,1.41,1.36,1.14a133.47,133.47,0,0,0,25.82-8.12,3.11,3.11,0,0,0,1.86-2c.63-1.89,1.34-3.74,2-5.62a129.6,129.6,0,0,0,4.71-18.5c.33-1.74.21-1.82-1.6-1.61-4,.47-8,1-12.05,1.37-5.59.51-11.2.9-16.8,1.38-3,.25-2.42.11-2.62,2.51-.48,5.94-.91,11.89-1.43,17.82C240,358,239.48,361.89,239.06,365.77Zm-53.95-59.7h0c0-4.17,0-8.35,0-12.52,0-1.79-.05-1.85-1.86-1.74-3.28.19-6.56.36-9.83.64-7.09.62-14.17,1.29-21.26,2-2,.2-1.94.27-2.08,2.18a132.07,132.07,0,0,0,0,19.08c.12,1.81.11,1.8,2,2.05,10.4,1.33,20.84,2,31.3,2.6,1.62.08,1.66,0,1.66-1.73Zm54.41-59.45a1.5,1.5,0,0,1,0,.2l2.4,29.69c.13,1.59.13,1.56,1.86,1.72q12.68,1.17,25.36,2.37c1.7.16,3.4.4,5.1.6.59.07.93-.14.81-.81-.06-.33-.11-.67-.17-1A135,135,0,0,0,268.67,256a3.25,3.25,0,0,0-2.05-2.1c-3.14-1.19-6.2-2.61-9.4-3.59-5.43-1.66-10.93-3.06-16.41-4.55C240.08,245.56,239.38,245.49,239.52,246.62Zm-25.65,30.7v.09H225.8c2.23,0,2.23,0,2.12-2.28,0-.42,0-.83-.08-1.24-.23-3.48-.4-7-.72-10.45-.58-6.14-1.23-12.27-1.9-18.4-.19-1.71-.26-1.8-2-1.86q-9.24-.28-18.49-.43c-1.75,0-1.78.05-2,1.78-1.42,10.25-2.31,20.56-2.86,30.89-.1,1.88-.06,1.89,1.91,1.89Zm-.12,57.34v.2H201.42c-1.69,0-1.71,0-1.63,1.73.54,10.61,1.48,21.18,3,31.7.22,1.59.24,1.68,1.92,1.65q8.93-.17,17.86-.45c1.93-.06,1.93-.13,2.18-2.16.49-4,1.07-8,1.44-12,.58-6.34,1-12.69,1.51-19.05.11-1.54,0-1.59-1.58-1.59ZM199.09,306h0q0,6.36,0,12.73a3.28,3.28,0,0,0,.06,1.22,1.81,1.81,0,0,0,.88.89,4.16,4.16,0,0,0,1.42.08q12.63-.13,25.26-.29c1.65,0,1.7-.07,1.71-1.77q.08-12.73.09-25.46c0-1.81-.05-1.88-1.79-1.9q-12.94-.14-25.88-.19c-1.67,0-1.72.06-1.73,1.75C199.07,297.35,199.09,301.66,199.09,306Zm43.48.14h-.11c0,3.76,0,7.53,0,11.3,0,2.44-.07,2.52,2.45,2.32,6.62-.54,13.24-1.11,19.85-1.77,3.54-.35,7.07-.89,10.59-1.4,1.5-.22,1.5-.29,1.58-1.83.1-2,.26-4,.25-5.95,0-3.9-.18-7.81-.21-11.71,0-1.08-.51-1.46-1.44-1.56-.28,0-.55-.08-.82-.12-10-1.39-20.11-2.46-30.24-3.07-1.89-.11-1.89-.13-1.89,1.86Zm-70-97.59c-1.07.39-1.7.58-2.3.84a103.57,103.57,0,0,0-51.62,49.12,8,8,0,0,0-.52,1.11,1.4,1.4,0,0,0,0,.57,2.25,2.25,0,0,0,.53-.21,4.53,4.53,0,0,0,.62-.54,107.62,107.62,0,0,1,28.48-18.12,5.65,5.65,0,0,0,3-2.87,99.42,99.42,0,0,1,20.73-28.64C171.74,209.52,172,209.2,172.54,208.53Zm136.82,58.94c-.22-.58-.37-1-.56-1.47q-14.91-36.15-49.64-54.11a8.6,8.6,0,0,0-1.12-.51c-.15,0-.34,0-.51.07a1,1,0,0,0,.14.37,8.08,8.08,0,0,0,.57.6,105.15,105.15,0,0,1,19.93,30,6.38,6.38,0,0,0,3,3.16,92.37,92.37,0,0,1,27,21.22,4.9,4.9,0,0,0,.72.72C309,267.57,309.15,267.49,309.36,267.47Zm-49.21,130.1,1.55-.82a104,104,0,0,0,45-47.87c.2-.44.4-.87.58-1.32,0-.11,0-.26,0-.39a1.16,1.16,0,0,0-.47.11,4.54,4.54,0,0,0-.58.58,96.23,96.23,0,0,1-26,19.59,5.57,5.57,0,0,0-2.62,2.71,105.45,105.45,0,0,1-16.95,26.12,5.48,5.48,0,0,0-.64.8C259.94,397.16,260.07,397.35,260.15,397.57ZM169.74,400c-.34-.39-.55-.65-.78-.89a100.78,100.78,0,0,1-17.56-24.93,4.33,4.33,0,0,0-2.43-2,110.32,110.32,0,0,1-26.7-16c-.32-.26-.64-.52-1-.75a.36.36,0,0,0-.35,0,.42.42,0,0,0,0,.36,7.1,7.1,0,0,0,.47.91,103.9,103.9,0,0,0,46.76,43,9.82,9.82,0,0,0,.94.4C169.21,400.07,169.39,400,169.74,400ZM115.23,325c-.08.22-.27.49-.21.68a9.5,9.5,0,0,0,.7,1.48,59.56,59.56,0,0,0,12.09,15.21,80.64,80.64,0,0,0,13.64,10.17,4.77,4.77,0,0,0,.94.34c0-.37,0-.74,0-1.11a3,3,0,0,0-.15-.59,151.39,151.39,0,0,1-4.41-19.61c-.29-1.77-.31-1.69-2.2-2.09-6.29-1.33-12.57-2.71-18.85-4.08C116.34,325.33,115.88,325.2,115.23,325ZM136,306.21H136c0-2.6,0-5.21,0-7.81,0-1.47-.09-1.6-1.49-1.33a125.21,125.21,0,0,0-21.63,5.68c-2.94,1.13-2.53.64-2.65,4a2.05,2.05,0,0,0,1.52,2.3,126.32,126.32,0,0,0,23,6.11c1.21.22,1.31,0,1.3-1.34C136,311.28,136,308.75,136,306.21ZM115.72,287l.59-.14c6.62-1.43,13.23-2.88,19.85-4.28a1.68,1.68,0,0,0,1.48-1.63c.53-3.17,1.08-6.33,1.76-9.47.75-3.41,1.66-6.78,2.47-10.17a3.12,3.12,0,0,0-.07-.95,4.89,4.89,0,0,0-.77.23,9.61,9.61,0,0,0-.87.53,80.38,80.38,0,0,0-14.44,11.47,58.61,58.61,0,0,0-9.51,12.31,10.58,10.58,0,0,0-.73,1.47C115.42,286.56,115.64,286.83,115.72,287Zm99.34-58.3,6.24.33c1.29.07,1.47-.1,1.21-1.38-.48-2.42-.9-4.86-1.57-7.22-1.21-4.28-2.56-8.52-3.9-12.76-.17-.56-.51-1.43-.9-1.51a15,15,0,0,0-3.85-.22c-1,.07-1.08,1.14-1.36,1.86a108.4,108.4,0,0,0-5.39,19.36c-.3,1.53-.28,1.54,1.39,1.54Zm18.45-17.67c-.12.19-.34.37-.33.55a7.32,7.32,0,0,0,.25,1.2c1.18,5.41,2.38,10.82,3.53,16.24.39,1.81.37,1.77,2.15,2.18C245,232.6,251,234,256.87,235.44c.34.08.65.23,1,.28.17,0,.47,0,.54-.13a.75.75,0,0,0-.09-.57,7,7,0,0,0-.66-1c-2.87-3.66-5.6-7.45-8.68-10.92a55.43,55.43,0,0,0-13.86-11.17C234.63,211.61,234.14,211.37,233.51,211.05Zm-38.58-.16c0,.19.06-.2-.1-.28s-.52,0-.76.13-.73.37-1.09.56c-9.38,5.1-16.54,12.55-22.6,21.18a3,3,0,0,0-.3.73,4.19,4.19,0,0,0,1.1.11c6.13-1.11,12.26-2.26,18.39-3.36a1.47,1.47,0,0,0,1.44-1.4c.26-1.69.61-3.37,1-5C192.92,219.44,193.89,215.38,194.93,210.89Zm62.12,166.22-1,.25c-5.85,1.39-11.71,2.79-17.57,4.15-2,.45-1.92.41-2.33,2.24-1.09,4.8-2.22,9.6-3.32,14.4-.18.78-.27,1.57-.4,2.36a18.49,18.49,0,0,0,2.21-.88c9.35-5.25,16.46-12.84,22.49-21.56.08-.11.22-.26.19-.35A2.84,2.84,0,0,0,257.05,377.11Zm-43.33,6.58V384c-2.33,0-4.66,0-7,0-1.21,0-1.32.1-1.09,1.31a56,56,0,0,0,1.26,5.6c1.32,4.32,2.72,8.6,4.16,12.88a2.54,2.54,0,0,0,1.23,1.48,2.8,2.8,0,0,0,3.9-1.74,104.75,104.75,0,0,0,5.52-18.67c.19-.88-.05-1.25-1-1.23C218.37,383.73,216,383.69,213.72,383.69Zm-18.8,16.64c-.15-.59-.26-1-.35-1.38-1.09-4.66-2.2-9.31-3.26-14-.43-1.9-.39-1.9-2.28-2.21-3.71-.6-7.43-1.19-11.13-1.83-1.75-.31-3.47-.75-5.21-1.1a6.85,6.85,0,0,0-1.2,0A5.21,5.21,0,0,0,172,381c1.3,1.67,2.6,3.35,4,5a60.77,60.77,0,0,0,16.83,13.9,8.38,8.38,0,0,0,1.48.71C194.46,400.66,194.73,400.42,194.92,400.33ZM291.11,306h-.05c0,2.18,0,4.37,0,6.55,0,.82.29,1.16,1.09,1,1-.23,2-.42,3-.73,4.41-1.41,8.82-2.87,13.23-4.29a2.05,2.05,0,0,0,1.47-2.35c0-1.19-.21-2-1.48-2.57a96.55,96.55,0,0,0-15.83-4.88c-1.35-.31-1.41-.21-1.41,1.15C291.1,301.87,291.11,303.92,291.11,306Zm-4.88,40.31c0-.07,0,.18.09.43.25-.09.5-.15.73-.26a3.5,3.5,0,0,0,.49-.37,66.13,66.13,0,0,0,14.95-16.22c.89-1.38,1.63-2.85,2.41-4.29a2.7,2.7,0,0,0,.16-.77,2.93,2.93,0,0,0-.78,0c-4.51,1.1-9,2.22-13.54,3.31a1.42,1.42,0,0,0-1.24,1.36c-.27,1.9-.6,3.78-1,5.66C287.81,338.73,287,342.34,286.23,346.28ZM212.3,184.82v-.36c3.49.21,7,.43,10.46.63,1,.06,1.16-.13.66-1s-1-1.49-1.47-2.23c-2.59-3.88-5.16-7.76-7.76-11.62-.81-1.22-.92-1.23-1.66-.12q-4.53,6.74-9,13.51c-.68,1-.56,1.18.76,1.18Zm74.17,81.46c.1.47.16.73.21,1,1,5.1,2,10.19,2.89,15.3.19,1.05.72,1.29,1.61,1.49,3.86.88,7.7,1.84,11.56,2.76.64.15,1.3.19,2,.29a10.84,10.84,0,0,0-.7-2,62.89,62.89,0,0,0-16.41-18.68c-.16-.12-.32-.31-.5-.33A1.7,1.7,0,0,0,286.47,266.28Z" transform="translate(-91.6 -66.99)"/><path d="M326.34,175.09a53.4,53.4,0,0,1-52.59-42.73c-4.26-21.34,2.51-39.16,19.07-53.24,2.19-1.86,4.56-3.5,6.85-5.24a43.51,43.51,0,0,1,12.39-6.34c2.27-.78,4.39-1,6.28.95a6,6,0,0,1,1.42,6.42,74.46,74.46,0,0,0-3,16.75,43.63,43.63,0,0,0,2.45,16.57c3.88,11.48,10.14,21.38,19.72,29a36.43,36.43,0,0,0,19.44,8.11,60.87,60.87,0,0,1,7.48,1.28c3.39.76,4.88,3.75,3.52,7a7.78,7.78,0,0,1-1.56,2.39,68.78,68.78,0,0,1-13.52,11.3A54.24,54.24,0,0,1,326.34,175.09Zm-22.19-81.3c0-1,0-2.05,0-3.08,0-.72-.06-1.44-.09-2.15a14.65,14.65,0,0,0-1.91,1c-15,11.2-20,32.56-11.55,49.28a39.8,39.8,0,0,0,40.31,22,37.69,37.69,0,0,0,13.85-4.28,5.46,5.46,0,0,0,.92-.76,5.35,5.35,0,0,0-1-.64A50.61,50.61,0,0,1,334,149.5c-11-7.73-18.82-18-24.23-30.25C306.21,111.14,304,102.72,304.15,93.79Z" transform="translate(-91.6 -66.99)"/><path d="M127.63,143.24a7.92,7.92,0,0,0,1.87,5.65c2.68,3.49,5.56,6.75,9.75,8.6a4.63,4.63,0,0,1,1.42,7.57c-1.21,1.29-2.59,2.42-3.89,3.63-1.9,1.77-3.92,3.44-5.65,5.36a20.45,20.45,0,0,0-5.24,11.18,16.79,16.79,0,0,1-.45,2.22,4.41,4.41,0,0,1-2.45,2.88,5.92,5.92,0,0,1-8.13-3.53q-1-3.23-2.15-6.42A20.35,20.35,0,0,0,102,168.74c-1.58-.79-3-1.68-3.59-3.46a5.75,5.75,0,0,1,1.66-6.54c1.79-1.6,3.65-3.12,5.38-4.77,2-1.89,3.93-3.83,5.74-5.87a13.39,13.39,0,0,0,3-5.58,4.82,4.82,0,0,1,3.16-3.52,15.57,15.57,0,0,0,1.83-.91,5.9,5.9,0,0,1,4.59-.46A5,5,0,0,1,127.63,143.24Zm.66,19.36c-.26-.3-.47-.56-.69-.8-2.24-2.48-4.52-4.94-6.72-7.46-.64-.73-.92-.43-1.41.11-2.22,2.41-4.45,4.82-6.76,7.16-.72.73-.75,1.11.08,1.73a29.79,29.79,0,0,1,6.76,7.4c.73,1.1.72,1,1.53.09,2.13-2.49,4.29-5,6.45-7.43C127.75,163.15,128,162.92,128.29,162.6Z" transform="translate(-91.6 -66.99)"/><path d="M340.7,423.69a5.74,5.74,0,0,1-3.68,4.82,32.68,32.68,0,0,0-9.6,7,16.29,16.29,0,0,0-4.52,8.6,4.83,4.83,0,0,1-3.95,4.2,5,5,0,0,1-5.18-2.58,8.67,8.67,0,0,1-.85-1.86,25.4,25.4,0,0,0-11.83-14.69c-5.51-3.2-5.76-7.84-.8-11.84,1.65-1.33,3.48-2.46,5.07-3.86a38.77,38.77,0,0,0,4.42-4.55,8.1,8.1,0,0,0,1.32-3,5.83,5.83,0,0,1,3-3.71,8.12,8.12,0,0,1,5.84-1.31,5.08,5.08,0,0,1,4.3,3.89c.49,1.85,1,3.7,1.57,5.53a13.09,13.09,0,0,0,4,6.14,8.1,8.1,0,0,0,5.82,2.11A4.8,4.8,0,0,1,340.7,423.69ZM323.53,425a6.45,6.45,0,0,0-.66-.77,21.79,21.79,0,0,1-5.32-6.7c-.31-.63-.62-.78-1.2-.22q-2.5,2.43-5.09,4.77c-.53.48-.53.77,0,1.28,2.14,2.1,4.26,4.23,6.33,6.39.51.54.8.53,1.29,0,1.33-1.38,2.7-2.71,4.05-4.07C323.12,425.53,323.28,425.32,323.53,425Z" transform="translate(-91.6 -66.99)"/></svg>