<svg id="Camada_27" data-name="Camada 27" xmlns="http://www.w3.org/2000/svg" viewBox="0 0 406.88 219.55"><path d="M211.51,374.59c-21.89-.17-40.77-5.14-58.07-15.6Q97.55,325.24,41.78,291.3q-14.16-8.6-28.32-17.16c-.88-.53-1.82-.95-2.73-1.42a7.75,7.75,0,0,1-1.08-13.4c1.6-1.17,3.36-2.11,5-3.16q56.63-34.94,113.23-69.87c7.58-4.68,15.17-9.36,22.7-14.13a110.25,110.25,0,0,1,115.94-1.27c16.45,9.88,32.79,20,49.21,29.89q44.88,27.14,89.81,54.17c1,.6,2.05,1.1,3.08,1.63a7.82,7.82,0,0,1,1.38,13.32,16.21,16.21,0,0,1-1.69,1.15L275.93,352.9c-2.1,1.29-4.15,2.66-6.23,4a109.83,109.83,0,0,1-46.76,16.9C218.6,374.33,214.19,374.41,211.51,374.59ZM116,265c.19,51.73,41.79,93.54,93.36,93.65,52.73.11,94-42.81,94-93.86,0-51.44-41.71-93.69-93.35-93.84A94,94,0,0,0,116,265Zm-86.63.49,82.1,49.64c-15.67-33.38-15.7-66.59-.44-100Zm279.08,48.85q40.63-25.11,81.37-50.32a9,9,0,0,0-.8-.73l-81-48.77a.26.26,0,0,0-.19,0c-.05,0-.08.11-.12.17C323.62,247.75,323.68,280.86,308.49,314.35Z" transform="translate(-6.28 -155.04)"/></svg>